<svg version="1.1" xmlns="http://www.w3.org/2000/svg" xmlns:xlink="http://www.w3.org/1999/xlink" width="435.94658" height="367" viewBox="0,0,435.94658,367"><g transform="translate(7.57956,3.5)"><g data-paper-data="{&quot;isPaintingLayer&quot;:true}" fill-rule="nonzero" stroke-linejoin="miter" stroke-miterlimit="10" stroke-dasharray="" stroke-dashoffset="0" style="mix-blend-mode: normal"><path d="M-7.57955,363.5v-367h225.57958v367z" fill="#f0cdc7" stroke="none" stroke-width="0" stroke-linecap="butt"/><text transform="translate(26.69618,82.72758) scale(0.90038,0.90371)" font-size="40" xml:space="preserve" fill="#4a3e3b" fill-rule="nonzero" stroke="none" stroke-width="1" stroke-linecap="butt" stroke-linejoin="miter" stroke-miterlimit="10" stroke-dasharray="" stroke-dashoffset="0" font-family="Pixel" font-weight="normal" text-anchor="start" style="mix-blend-mode: normal"><tspan x="0" dy="0">电话</tspan></text><path d="M47.85974,76.45251l6.75,-6.125" fill="none" stroke="none" stroke-width="0" stroke-linecap="round"/><path d="M47.60974,75.45251l7.375,-6.5" fill="none" stroke="none" stroke-width="0" stroke-linecap="round"/><path d="M26.39388,176.25571c0,-8.47853 6.87322,-15.35175 15.35175,-15.35175c8.47853,0 15.35174,6.87322 15.35174,15.35175c0,8.47853 -6.87321,15.35174 -15.35174,15.35174c-8.47853,0 -15.35175,-6.87321 -15.35175,-15.35174z" fill="#f9ddd9" stroke="none" stroke-width="0" stroke-linecap="butt"/><path d="M25.2302,159.54362h33.03078v33.03079h-33.03078z" fill="none" stroke="none" stroke-width="1" stroke-linecap="butt"/><path d="M25.2302,159.54364h24v24h-24z" fill="none" stroke="none" stroke-width="1" stroke-linecap="butt"/><text transform="translate(34.91415,184.42043) scale(0.55513,0.55513)" font-size="40" xml:space="preserve" fill="#4a3e3b" fill-rule="nonzero" stroke="none" stroke-width="1" stroke-linecap="butt" stroke-linejoin="miter" stroke-miterlimit="10" stroke-dasharray="" stroke-dashoffset="0" font-family="Sans Serif" font-weight="normal" text-anchor="start" style="mix-blend-mode: normal"><tspan x="0" dy="0">X</tspan></text><path d="M71.72822,191.07222v-32.70395h83.42845v32.70395z" fill-opacity="0.00784" fill="#e0c3ba" stroke="none" stroke-width="0" stroke-linecap="butt"/><text transform="translate(71.26515,177.78869) scale(0.44743,0.44743)" font-size="40" xml:space="preserve" fill="#4a3e3b" fill-rule="nonzero" stroke="none" stroke-width="1" stroke-linecap="butt" stroke-linejoin="miter" stroke-miterlimit="10" stroke-dasharray="" stroke-dashoffset="0" font-family="&quot;Microsoft YaHei&quot;, &quot;微软雅黑&quot;, STXihei, &quot;华文细黑&quot;" font-weight="normal" text-anchor="start" style="mix-blend-mode: normal"><tspan x="0" dy="0">XiaChe</tspan></text><text transform="translate(71.90546,188.07991) scale(0.2079,0.2079)" font-size="40" xml:space="preserve" fill="#806861" fill-rule="nonzero" stroke="none" stroke-width="1" stroke-linecap="butt" stroke-linejoin="miter" stroke-miterlimit="10" stroke-dasharray="" stroke-dashoffset="0" font-family="Sans Serif" font-weight="normal" text-anchor="start" style="mix-blend-mode: normal"><tspan x="0" dy="0">2023/1/21 呼出 3:35</tspan></text><path d="M26.3939,219.92238c0,-8.47853 6.87322,-15.35175 15.35175,-15.35175c8.47853,0 15.35174,6.87322 15.35174,15.35175c0,8.47853 -6.87321,15.35174 -15.35174,15.35174c-8.47853,0 -15.35175,-6.87321 -15.35175,-15.35174z" fill="#f9ddd9" stroke="none" stroke-width="0" stroke-linecap="butt"/><text transform="translate(32.31417,227.47043) scale(0.4593,0.4593)" font-size="40" xml:space="preserve" fill="#4a3e3b" fill-rule="nonzero" stroke="none" stroke-width="1" stroke-linecap="butt" stroke-linejoin="miter" stroke-miterlimit="10" stroke-dasharray="" stroke-dashoffset="0" font-family="Sans Serif" font-weight="normal" text-anchor="start" style="mix-blend-mode: normal"><tspan x="0" dy="0">平</tspan></text><path d="M43.42365,123.474l127.5665,-0.77313" fill="none" stroke="#f9ddd9" stroke-width="32.5" stroke-linecap="round"/><text transform="translate(41.38609,128.44472) scale(0.33707,0.34502)" font-size="40" xml:space="preserve" fill-opacity="0.26667" fill="#000000" fill-rule="nonzero" stroke="none" stroke-width="1" stroke-linecap="butt" stroke-linejoin="miter" stroke-miterlimit="10" stroke-dasharray="" stroke-dashoffset="0" font-family="&quot;Microsoft YaHei&quot;, &quot;微软雅黑&quot;, STXihei, &quot;华文细黑&quot;" font-weight="normal" text-anchor="start" style="mix-blend-mode: normal"><tspan x="0" dy="0">搜索...</tspan></text><text transform="translate(71.19433,220.18604) scale(0.44743,0.44743)" font-size="40" xml:space="preserve" fill="#4a3e3b" fill-rule="nonzero" stroke="none" stroke-width="1" stroke-linecap="butt" stroke-linejoin="miter" stroke-miterlimit="10" stroke-dasharray="" stroke-dashoffset="0" font-family="&quot;Microsoft YaHei&quot;, &quot;微软雅黑&quot;, STXihei, &quot;华文细黑&quot;" font-weight="normal" text-anchor="start" style="mix-blend-mode: normal"><tspan x="0" dy="0">平原猫</tspan></text><text transform="translate(71.83463,231.39671) scale(0.2079,0.2079)" font-size="40" xml:space="preserve" fill="#806861" fill-rule="nonzero" stroke="none" stroke-width="1" stroke-linecap="butt" stroke-linejoin="miter" stroke-miterlimit="10" stroke-dasharray="" stroke-dashoffset="0" font-family="Sans Serif" font-weight="normal" text-anchor="start" style="mix-blend-mode: normal"><tspan x="0" dy="0">2023/1/20 呼出 1:42</tspan></text><path d="M173.71994,129.41129l-1.17551,1.1755l-3.94464,-3.93674v-0.62326l-0.21301,-0.2209c-0.89937,0.77315 -2.06698,1.23861 -3.33716,1.23861c-2.83225,0 -5.12803,-2.29577 -5.12803,-5.12802c0,-2.83225 2.29578,-5.12802 5.12803,-5.12802c2.83225,0 5.12802,2.29577 5.12802,5.12802c0,1.27017 -0.46546,2.43779 -1.23861,3.33716l0.2209,0.21301h0.62325zM168.5998,121.91648c0,-1.96443 -1.58574,-3.55017 -3.55017,-3.55017c-1.96443,0 -3.55017,1.58574 -3.55017,3.55017c0,1.96443 1.58574,3.55017 3.55017,3.55017c1.96443,0 3.55017,-1.58575 3.55017,-3.55017z" fill-opacity="0.43529" fill="#4a3e3b" stroke="none" stroke-width="1" stroke-linecap="butt"/><path d="M147.41868,69.35831c0,0.72894 -0.58843,1.31736 -1.31737,1.31736c-0.72894,0 -1.31736,-0.58843 -1.31736,-1.31736c0,-0.72894 0.58843,-1.31737 1.31736,-1.31737c0.72894,0 1.31737,0.58843 1.31737,1.31737zM147.41868,64.08885c0,0.72894 -0.58843,1.31736 -1.31737,1.31736c-0.72894,0 -1.31736,-0.58843 -1.31736,-1.31736c0,-0.72894 0.58843,-1.31737 1.31736,-1.31737c0.72894,0 1.31737,0.58843 1.31737,1.31737zM147.41868,74.62777c0,0.72016 -0.59721,1.31736 -1.31737,1.31736c-0.72016,0 -1.31736,-0.5972 -1.31736,-1.31736c0,-0.72016 0.58843,-1.31736 1.31736,-1.31736c0.72894,0 1.31737,0.5972 1.31737,1.31736zM148.73604,73.74953h12.29541v1.75649h-12.29541zM148.73604,68.48007h12.29541v1.75648h-12.29541zM161.03147,63.2106v1.75649h-12.29541v-1.75649z" fill="#4a3e3b" stroke="none" stroke-width="1" stroke-linecap="butt"/><path d="M170.36669,68.16815h14.52778v1.75h-14.52778z" fill="#4a3e3b" stroke="#4a3e3b" stroke-width="0" stroke-linecap="butt"/><path d="M178.61669,61.89038v14.52778h-1.75v-14.52777z" fill="#4a3e3b" stroke="#4a3e3b" stroke-width="0" stroke-linecap="butt"/><text transform="translate(331.98943,183.21426) scale(0.47833,0.47833)" font-size="40" xml:space="preserve" fill="#806861" fill-rule="nonzero" stroke="none" stroke-width="1" stroke-linecap="butt" stroke-linejoin="miter" stroke-miterlimit="10" stroke-dasharray="" stroke-dashoffset="0" font-family="Sans Serif" font-weight="normal" text-anchor="start" style="mix-blend-mode: normal"><tspan x="0" dy="0">选择联系人</tspan></text></g></g></svg>