<svg version="1.1" xmlns="http://www.w3.org/2000/svg" xmlns:xlink="http://www.w3.org/1999/xlink" width="177.2731" height="94.03418" viewBox="0,0,177.2731,94.03418"><g transform="translate(-186.36744,-125.78726)"><g data-paper-data="{&quot;isPaintingLayer&quot;:true}" fill-rule="nonzero" stroke-linecap="butt" stroke-linejoin="miter" stroke-miterlimit="10" stroke-dasharray="" stroke-dashoffset="0" style="mix-blend-mode: normal"><path d="M186.62029,209.22972c-0.00202,-0.22259 0.00002,-0.44824 0.00008,-0.67684c0.00198,-8.83466 0.04176,-22.10869 0.08222,-36.53447c16.23236,0.73368 32.72662,0.0862 48.97222,-0.01727c42.57097,-0.27115 85.14404,-0.35714 127.71461,-0.67779c0,15.25424 0,29.30703 0,38.26275c0,10.44388 -5.57242,9.9789 -11.76085,9.9789c-18.59825,0 -113.57622,0 -150.39631,0c-9.0708,0 -14.51253,0.62109 -14.61196,-10.33529z" fill="#f9ddd9" stroke="#ffe2c6" stroke-width="0.5"/><path d="M186.62029,136.01616c-0.15767,-8.05854 6.28213,-9.9789 8.90973,-9.9789c17.4502,0 122.24987,-0.15186 156.81133,0c11.31512,0.04972 10.79807,7.38514 10.79807,13.04807c0,4.29631 0.25,59.35649 0.25,59.35649l-176.70577,1.82171c0,0 0.04886,-59.91185 -0.06336,-64.24736z" fill="#f9ddd9" stroke="#ffe2c6" stroke-width="0.5"/><text transform="translate(196.00443,141.86496) scale(0.20743,0.20743)" font-size="40" xml:space="preserve" fill-opacity="0.69412" fill="#de907c" fill-rule="nonzero" stroke="none" stroke-width="1" stroke-linecap="butt" stroke-linejoin="miter" stroke-miterlimit="10" stroke-dasharray="" stroke-dashoffset="0" font-family="&quot;Microsoft YaHei&quot;, &quot;微软雅黑&quot;, STXihei, &quot;华文细黑&quot;" font-weight="normal" text-anchor="start" style="mix-blend-mode: normal"><tspan x="0" dy="0">你收到一条新信息</tspan></text><text transform="translate(196.42721,159.26739) scale(0.28458,0.26708)" font-size="40" xml:space="preserve" fill="#4a3e3b" fill-rule="nonzero" stroke="none" stroke-width="1" stroke-linecap="butt" stroke-linejoin="miter" stroke-miterlimit="10" stroke-dasharray="" stroke-dashoffset="0" font-family="&quot;Microsoft YaHei&quot;, &quot;微软雅黑&quot;, STXihei, &quot;华文细黑&quot;" font-weight="normal" text-anchor="start" style="mix-blend-mode: normal"><tspan x="0" dy="0">XiaChe:</tspan></text><text transform="translate(195.81187,208.15023) scale(0.24775,0.24775)" font-size="40" xml:space="preserve" fill="#de8f7c" fill-rule="nonzero" stroke="none" stroke-width="1" stroke-linecap="butt" stroke-linejoin="miter" stroke-miterlimit="10" stroke-dasharray="" stroke-dashoffset="0" font-family="Sans Serif" font-weight="normal" text-anchor="start" style="mix-blend-mode: normal"><tspan x="0" dy="0">回复</tspan></text><text transform="translate(196.08536,174.63574) scale(0.2776,0.2776)" font-size="40" xml:space="preserve" fill="#4a3e3b" fill-rule="nonzero" stroke="none" stroke-width="1" stroke-linecap="butt" stroke-linejoin="miter" stroke-miterlimit="10" stroke-dasharray="" stroke-dashoffset="0" font-family="&quot;Microsoft YaHei&quot;, &quot;微软雅黑&quot;, STXihei, &quot;华文细黑&quot;" font-weight="normal" text-anchor="start" style="mix-blend-mode: normal"><tspan x="0" dy="0">我在写永字同时吞下快速的棕</tspan><tspan x="0" dy="48px">色狐狸和懒惰的狗而不伤身子。</tspan></text><text transform="translate(224.42508,208.42759) scale(0.24775,0.24775)" font-size="40" xml:space="preserve" fill="#de8f7c" fill-rule="nonzero" stroke="none" stroke-width="1" stroke-linecap="butt" stroke-linejoin="miter" stroke-miterlimit="10" stroke-dasharray="" stroke-dashoffset="0" font-family="Sans Serif" font-weight="normal" text-anchor="start" style="mix-blend-mode: normal"><tspan x="0" dy="0">已读</tspan></text></g></g></svg>