<svg version="1.1" xmlns="http://www.w3.org/2000/svg" xmlns:xlink="http://www.w3.org/1999/xlink" width="35.5" height="35.5" viewBox="0,0,35.5,35.5"><g transform="translate(-257.25,-162.25)"><g data-paper-data="{&quot;isPaintingLayer&quot;:true}" fill-rule="nonzero" stroke="none" stroke-linecap="butt" stroke-linejoin="miter" stroke-miterlimit="10" stroke-dasharray="" stroke-dashoffset="0" style="mix-blend-mode: normal"><path d="M257.25,180c0,-9.80304 7.94696,-17.75 17.75,-17.75c9.80304,0 17.75,7.94696 17.75,17.75c0,9.80304 -7.94696,17.75 -17.75,17.75c-9.80304,0 -17.75,-7.94696 -17.75,-17.75z" fill="#f0cdc7" stroke-width="0"/><path d="M261.77436,180c0,-7.26234 5.92132,-13.14963 13.22564,-13.14963c7.30432,0 13.22564,5.88729 13.22564,13.14963c0,7.26234 -5.92132,13.14963 -13.22564,13.14963c-7.30432,0 -13.22564,-5.88729 -13.22564,-13.14963z" fill="#f9ddd9" stroke-width="0"/><path d="M281.45275,176.77363v9.67912l-2.5811,-2.5811h-7.09802c-0.3549,0 -0.64527,-0.29037 -0.64527,-0.64527v-1.29055h8.38857v-5.80747h1.29055c0.3549,0 0.64527,0.29037 0.64527,0.64527zM277.5811,180.64527h-6.45275l-2.5811,2.5811v-9.03385c0,-0.3549 0.29037,-0.64527 0.64527,-0.64527h8.38857c0.3549,0 0.64527,0.29037 0.64527,0.64527v5.80747c0,0.3549 -0.29037,0.64527 -0.64527,0.64527z" fill="#4a3e3b" stroke-width="1"/><path d="M271.46369,182.30063l2.85724,4.93523h-5.71448zM271.72344,185.93711h-0.5195v0.5195h0.5195zM271.72344,184.37862h-0.5195v1.039h0.5195z" fill="#4a3e3b" stroke-width="1"/></g></g></svg>