<svg version="1.1" xmlns="http://www.w3.org/2000/svg" xmlns:xlink="http://www.w3.org/1999/xlink" width="524.86103" height="367" viewBox="0,0,524.86103,367"><g transform="translate(5.57957,3.5)"><g data-paper-data="{&quot;isPaintingLayer&quot;:true}" fill-rule="nonzero" stroke-linejoin="miter" stroke-miterlimit="10" stroke-dasharray="" stroke-dashoffset="0" style="mix-blend-mode: normal"><path d="M-5.57957,363.5v-367h223.57958v367z" fill="#f0cdc7" stroke="none" stroke-width="0" stroke-linecap="butt"/><path d="" fill="#694940" stroke="none" stroke-width="0" stroke-linecap="butt"/><path d="" fill="#694940" stroke="none" stroke-width="0" stroke-linecap="butt"/><text transform="translate(28.19767,83.80083) scale(0.97524,0.97524)" font-size="40" xml:space="preserve" fill="#4a3e3b" fill-rule="nonzero" stroke="none" stroke-width="1" stroke-linecap="butt" stroke-linejoin="miter" stroke-miterlimit="10" stroke-dasharray="" stroke-dashoffset="0" font-family="Pixel" font-weight="normal" text-anchor="start" style="mix-blend-mode: normal"><tspan x="0" dy="0">时钟</tspan></text><path d="M49.36121,74.95102l6.75,-6.125" fill="none" stroke="none" stroke-width="0" stroke-linecap="round"/><path d="M56.48621,67.45102l-7.375,6.5" fill="none" stroke="none" stroke-width="0" stroke-linecap="round"/><path d="M29.38871,125.78791c0,-8.47853 6.87322,-15.35175 15.35175,-15.35175c8.47853,0 15.35174,6.87322 15.35174,15.35175c0,8.47853 -6.87321,15.35174 -15.35174,15.35174c-8.47853,0 -15.35175,-6.87321 -15.35175,-15.35174z" fill="#f9ddd9" stroke="none" stroke-width="0" stroke-linecap="butt"/><path d="M27.62198,109.07582h33.03078v33.03079h-33.03078z" fill="none" stroke="none" stroke-width="1" stroke-linecap="butt"/><path d="M27.62198,109.07584h24v24h-24z" fill="none" stroke="none" stroke-width="1" stroke-linecap="butt"/><path d="M74.11999,140.60442v-32.70395h83.42845v32.70395z" fill-opacity="0.00784" fill="#e0c3ba" stroke="none" stroke-width="0" stroke-linecap="butt"/><text transform="translate(74.45693,130.41082) scale(0.5,0.5)" font-size="40" xml:space="preserve" fill="#4a3e3b" fill-rule="nonzero" stroke="none" stroke-width="1" stroke-linecap="butt" stroke-linejoin="miter" stroke-miterlimit="10" stroke-dasharray="" stroke-dashoffset="0" font-family="&quot;Microsoft YaHei&quot;, &quot;微软雅黑&quot;, STXihei, &quot;华文细黑&quot;" font-weight="normal" text-anchor="start" style="mix-blend-mode: normal"><tspan x="0" dy="0">时钟</tspan></text><path d="M29.38873,169.45458c0,-8.47853 6.87322,-15.35175 15.35175,-15.35175c8.47853,0 15.35174,6.87322 15.35174,15.35175c0,8.47853 -6.87321,15.35174 -15.35174,15.35174c-8.47853,0 -15.35175,-6.87321 -15.35175,-15.35174z" fill="#f9ddd9" stroke="none" stroke-width="0" stroke-linecap="butt"/><path d="M73.13396,185.42036v-33.4559h86.56893v33.4559z" fill-opacity="0.00784" fill="#e0c3ba" stroke="none" stroke-width="0" stroke-linecap="butt"/><text transform="translate(73.19005,176.20297) scale(0.5,0.5)" font-size="40" xml:space="preserve" fill="#4a3e3b" fill-rule="nonzero" stroke="none" stroke-width="1" stroke-linecap="butt" stroke-linejoin="miter" stroke-miterlimit="10" stroke-dasharray="" stroke-dashoffset="0" font-family="&quot;Microsoft YaHei&quot;, &quot;微软雅黑&quot;, STXihei, &quot;华文细黑&quot;" font-weight="normal" text-anchor="start" style="mix-blend-mode: normal"><tspan x="0" dy="0">计时器</tspan></text><path d="M18.62198,101.07582h51.23078v51.2308h-51.23078z" fill="none" stroke="none" stroke-width="1" stroke-linecap="butt"/><path d="M49.54359,133.05652l-5.36084,-6.50312l0.79864,-0.65836l5.36084,6.50312z" data-paper-data="{&quot;origRot&quot;:0}" fill="#030404" stroke="none" stroke-width="0" stroke-linecap="butt"/><path d="M44.2955,140.42023v-14.19432h1.47859v14.19432z" fill="#f06f59" stroke="none" stroke-width="0" stroke-linecap="butt"/><path d="M43.44363,126.6875c0,-0.85743 0.6951,-1.5525 1.55253,-1.5525c0.85742,0 1.5525,0.69508 1.5525,1.5525c0,0.85743 -0.69508,1.55252 -1.5525,1.55252c-0.85742,0 -1.55253,-0.6951 -1.55253,-1.55252z" fill="#f06f59" stroke="none" stroke-width="0" stroke-linecap="butt"/><path d="M43.65334,126.81474z" fill="#fafafa" stroke="none" stroke-width="0" stroke-linecap="butt"/><path d="M53.08459,168.60381c0.05716,0.40148 0.08673,0.81185 0.08673,1.22912c0,4.77332 -3.86954,8.64285 -8.64286,8.64285c-4.77332,0 -8.64285,-3.86953 -8.64285,-8.64285c0,-4.28707 3.12133,-7.84512 7.21538,-8.52553c0.46435,-0.07718 1.42747,-0.11733 1.42747,-0.11733l-0.5553,8.45094" fill="none" stroke="#694940" stroke-width="2" stroke-linecap="butt"/><text transform="translate(331.96579,240.0241) scale(0.36844,0.36844)" font-size="40" xml:space="preserve" fill-opacity="0.41961" fill="#4a3e3b" fill-rule="nonzero" stroke="none" stroke-width="1" stroke-linecap="butt" stroke-linejoin="miter" stroke-miterlimit="10" stroke-dasharray="" stroke-dashoffset="0" font-family="&quot;Microsoft YaHei&quot;, &quot;微软雅黑&quot;, STXihei, &quot;华文细黑&quot;" font-weight="normal" text-anchor="start" style="mix-blend-mode: normal"><tspan x="0" dy="0">连接到互联网</tspan><tspan x="0" dy="46.150000000000006px">以获取时间。</tspan></text><path d="M322.66758,138.78875c0,-30.41818 24.65885,-55.07703 55.07702,-55.07703c30.41818,0 55.07699,24.65886 55.07699,55.07703c0,30.41817 -24.65882,55.077 -55.07699,55.077c-30.41818,0 -55.07702,-24.65882 -55.07702,-55.077z" fill="#f9ddd9" stroke-opacity="0.0549" stroke="#000000" stroke-width="5.5" stroke-linecap="butt"/><path d="M316.32916,78.83127h118.50358v118.50361h-118.50358z" fill="none" stroke="none" stroke-width="1" stroke-linecap="butt"/><path d="M316.32916,78.83134h86.10411v86.10411h-86.1041z" fill="none" stroke="none" stroke-width="1" stroke-linecap="butt"/><path d="M284.04014,50.1299h183.79919v183.79926h-183.79919z" fill="none" stroke="none" stroke-width="1" stroke-linecap="butt"/><path d="M370.06431,180.30089l29.56919,-6.31722l0.77582,3.63136l-29.56918,6.31721z" data-paper-data="{&quot;origRot&quot;:0}" fill="#030404" stroke="none" stroke-width="0" stroke-linecap="butt"/><path d="M335.83451,167.7733l46.22559,21.36597l-2.22564,4.81522l-46.22559,-21.36597z" fill="#f06f59" stroke="none" stroke-width="0" stroke-linecap="butt"/><path d="M381.9095,186.62191c0,-3.07618 2.4938,-5.56986 5.56997,-5.56986c3.07614,0 5.56986,2.49372 5.56986,5.56986c0,3.07618 -2.49372,5.56993 -5.56986,5.56993c-3.07614,0 -5.56997,-2.49379 -5.56997,-5.56993z" fill="#f06f59" stroke="none" stroke-width="0" stroke-linecap="butt"/><path d="M373.8444,142.47268z" fill="#fafafa" stroke="none" stroke-width="0" stroke-linecap="butt"/><text transform="translate(366.42015,164.93662) rotate(-0.37337) scale(1.25297,1.34234) skewX(-0.00011)" font-size="40" xml:space="preserve" fill-opacity="0.15294" fill="#000000" fill-rule="nonzero" stroke="none" stroke-width="1" stroke-linecap="butt" stroke-linejoin="miter" stroke-miterlimit="10" stroke-dasharray="" stroke-dashoffset="0" font-family="Pixel" font-weight="normal" text-anchor="start" style="mix-blend-mode: normal"><tspan x="0" dy="0">?</tspan></text><path d="M169.66868,69.35831c0,0.72894 -0.58843,1.31736 -1.31737,1.31736c-0.72894,0 -1.31736,-0.58843 -1.31736,-1.31736c0,-0.72894 0.58843,-1.31737 1.31736,-1.31737c0.72894,0 1.31737,0.58843 1.31737,1.31737zM169.66868,64.08885c0,0.72894 -0.58843,1.31736 -1.31737,1.31736c-0.72894,0 -1.31736,-0.58843 -1.31736,-1.31736c0,-0.72894 0.58843,-1.31737 1.31736,-1.31737c0.72894,0 1.31737,0.58843 1.31737,1.31737zM169.66868,74.62777c0,0.72016 -0.59721,1.31736 -1.31737,1.31736c-0.72016,0 -1.31736,-0.5972 -1.31736,-1.31736c0,-0.72016 0.58843,-1.31736 1.31736,-1.31736c0.72894,0 1.31737,0.5972 1.31737,1.31736zM170.98605,73.74953h12.29541v1.75649h-12.29541zM170.98605,68.48007h12.29541v1.75648h-12.29541zM183.28146,63.2106v1.75649h-12.29541v-1.75649z" fill="#4a3e3b" stroke="none" stroke-width="1" stroke-linecap="butt"/><path d="M505.66867,69.35831c0,0.72894 -0.58843,1.31736 -1.31737,1.31736c-0.72894,0 -1.31736,-0.58843 -1.31736,-1.31736c0,-0.72894 0.58843,-1.31737 1.31736,-1.31737c0.72894,0 1.31737,0.58843 1.31737,1.31737zM505.66867,64.08885c0,0.72894 -0.58843,1.31736 -1.31737,1.31736c-0.72894,0 -1.31736,-0.58843 -1.31736,-1.31736c0,-0.72894 0.58843,-1.31737 1.31736,-1.31737c0.72894,0 1.31737,0.58843 1.31737,1.31737zM505.66867,74.62777c0,0.72016 -0.59721,1.31736 -1.31737,1.31736c-0.72016,0 -1.31736,-0.5972 -1.31736,-1.31736c0,-0.72016 0.58843,-1.31736 1.31736,-1.31736c0.72894,0 1.31737,0.5972 1.31737,1.31736zM506.98604,73.74953h12.29541v1.75649h-12.29541zM506.98604,68.48007h12.29541v1.75648h-12.29541zM519.28146,63.2106v1.75649h-12.29541v-1.75649z" fill="#4a3e3b" stroke="none" stroke-width="1" stroke-linecap="butt"/></g></g></svg>