<svg version="1.1" xmlns="http://www.w3.org/2000/svg" xmlns:xlink="http://www.w3.org/1999/xlink" width="70.96433" height="22.76412" viewBox="0,0,70.96433,22.76412"><g transform="translate(-13.34123,-1.87901)"><g data-paper-data="{&quot;isPaintingLayer&quot;:true}" fill-rule="nonzero" stroke="none" stroke-linecap="butt" stroke-linejoin="miter" stroke-miterlimit="10" stroke-dasharray="" stroke-dashoffset="0" style="mix-blend-mode: normal"><path d="M55.44752,14.67414c0,-3.32288 2.69373,-6.0166 6.0166,-6.0166c3.32287,0 6.0166,2.69373 6.0166,6.0166c0,3.32288 -2.69373,6.0166 -6.0166,6.0166c-3.32287,0 -6.0166,-2.69372 -6.0166,-6.0166z" fill="#f9ddd9" stroke-width="0"/><path d="M84.30556,10.30002v6.96666c0,0.63861 -0.5225,1.16111 -1.16111,1.16111h-8.12778l-2.32222,2.32222l0.0058,-10.45c0,-0.63861 0.51669,-1.16111 1.1553,-1.16111h9.28889c0.63861,0 1.16111,0.5225 1.16111,1.16111zM75.01667,14.36391h6.96667v-1.16111h-6.96667zM79.66111,14.94447h-4.64444v1.16111h4.64444zM81.98334,11.46113h-6.96667v1.16111h6.96667z" fill="#f9ddd9" stroke-width="1"/><g stroke-width="1" font-family="Sans Serif" font-weight="normal" font-size="40" text-anchor="start"><text transform="translate(13.5286,20.01716) scale(0.37475,0.37475)" font-size="40" xml:space="preserve" fill="#f9ddd9" fill-rule="nonzero" stroke="none" stroke-width="1" stroke-linecap="butt" stroke-linejoin="miter" stroke-miterlimit="10" stroke-dasharray="" stroke-dashoffset="0" font-family="Sans Serif" font-weight="normal" text-anchor="start" style="mix-blend-mode: normal"><tspan x="0" dy="0">10 24</tspan></text><text transform="translate(30.44769,18.93523) scale(0.39198,0.39198)" font-size="40" xml:space="preserve" fill="#ffe2c6" fill-rule="nonzero" stroke="none" stroke-width="1" stroke-linecap="butt" stroke-linejoin="miter" stroke-miterlimit="10" stroke-dasharray="" stroke-dashoffset="0" font-family="Sans Serif" font-weight="normal" text-anchor="start" style="mix-blend-mode: normal"><tspan x="0" dy="0">:</tspan></text></g><path d="M66.14013,16.55009h-9.13843c0.11631,-1.47876 0.95538,-2.80384 2.24307,-3.53906l-0.7643,-1.32092c-0.06231,-0.12046 -0.02492,-0.27 0.09138,-0.34477c0.12046,-0.07477 0.28246,-0.03738 0.36138,0.08308l0.78092,1.34584c1.188,-0.50261 2.52553,-0.50261 3.71352,0l0.78092,-1.34584c0.07477,-0.11631 0.22431,-0.15369 0.34477,-0.09138c0.12461,0.06646 0.17446,0.22431 0.108,0.35308l-0.7643,1.32092c1.28769,0.73523 2.12676,2.0603 2.24307,3.53906zM60.01323,14.88856c0,-0.28661 -0.23261,-0.51923 -0.51923,-0.51923c-0.28661,0 -0.51923,0.23261 -0.51923,0.51923c0,0.28661 0.23261,0.51923 0.51923,0.51923c0.28661,0 0.51923,-0.23261 0.51923,-0.51923zM64.16706,14.88856c0,-0.28661 -0.23261,-0.51923 -0.51923,-0.51923c-0.28661,0 -0.51923,0.23261 -0.51923,0.51923c0,0.28661 0.23261,0.51923 0.51923,0.51923c0.28661,0 0.51923,-0.23261 0.51923,-0.51923z" fill="#3c342e" stroke-width="1"/></g></g></svg>