<svg version="1.1" xmlns="http://www.w3.org/2000/svg" xmlns:xlink="http://www.w3.org/1999/xlink" width="35.5" height="35.5" viewBox="0,0,35.5,35.5"><g transform="translate(-257.25,-162.25)"><g data-paper-data="{&quot;isPaintingLayer&quot;:true}" fill-rule="nonzero" stroke-linejoin="miter" stroke-miterlimit="10" stroke-dasharray="" stroke-dashoffset="0" style="mix-blend-mode: normal"><path d="M257.25,180c0,-9.80304 7.94696,-17.75 17.75,-17.75c9.80304,0 17.75,7.94696 17.75,17.75c0,9.80304 -7.94696,17.75 -17.75,17.75c-9.80304,0 -17.75,-7.94696 -17.75,-17.75z" fill="#f0cdc7" stroke="none" stroke-width="0" stroke-linecap="butt"/><path d="M261.77436,179.84634c0,-7.26234 5.92132,-13.14963 13.22564,-13.14963c7.30432,0 13.22564,5.88729 13.22564,13.14963c0,7.26234 -5.92132,13.14963 -13.22564,13.14963c-7.30432,0 -13.22564,-5.88729 -13.22564,-13.14963z" fill="#f9ddd9" stroke="none" stroke-width="0" stroke-linecap="butt"/><path d="" data-paper-data="{&quot;origPos&quot;:null,&quot;origRot&quot;:0}" fill="#3a67c4" stroke="none" stroke-width="0" stroke-linecap="round"/><path d="M282.64154,182.10614c0.15215,0.12012 0.1922,0.33634 0.0961,0.51252l-1.60163,2.77082c-0.07207,0.12813 -0.20821,0.2002 -0.34435,0.2002c-0.04805,0 -0.0961,-0.00801 -0.14415,-0.02402l-1.99403,-0.80081c-0.41642,0.31232 -0.86488,0.58459 -1.35338,0.7848l-0.30431,2.12216c-0.02402,0.1922 -0.1922,0.33634 -0.3924,0.33634h-3.20326c-0.2002,0 -0.36837,-0.14415 -0.3924,-0.33634l-0.30431,-2.12216c-0.4885,-0.2002 -0.93695,-0.46447 -1.35338,-0.7848l-1.99403,0.80081c-0.04004,0.01602 -0.08809,0.02402 -0.13614,0.02402c-0.14415,0 -0.28029,-0.07207 -0.35236,-0.2002l-1.60163,-2.77082c-0.0961,-0.17618 -0.05606,-0.3924 0.0961,-0.51252l1.68972,-1.32134c-0.03203,-0.25626 -0.05606,-0.52053 -0.05606,-0.7848c0,-0.26427 0.02402,-0.52854 0.05606,-0.7848l-1.68972,-1.32134c-0.15215,-0.12012 -0.2002,-0.33634 -0.0961,-0.51252l1.60163,-2.77082c0.07207,-0.12813 0.20821,-0.2002 0.34435,-0.2002c0.04805,0 0.0961,0.00801 0.14415,0.02402l1.99403,0.80081c0.41642,-0.31232 0.86488,-0.58459 1.35338,-0.7848l0.30431,-2.12216c0.02402,-0.1922 0.1922,-0.33634 0.3924,-0.33634h3.20326c0.2002,0 0.36837,0.14415 0.3924,0.33634l0.30431,2.12216c0.4885,0.2002 0.93695,0.46447 1.35338,0.7848l1.99403,-0.80081c0.04004,-0.01602 0.08809,-0.02402 0.13614,-0.02402c0.14415,0 0.28029,0.07207 0.35236,0.2002l1.60163,2.77082c0.0961,0.17618 0.05606,0.3924 -0.0961,0.51252l-1.68972,1.32134c0.03203,0.25626 0.05606,0.51252 0.05606,0.7848c0,0.27228 -0.02402,0.52854 -0.05606,0.7848zM279.25409,178.51048l0.71273,-0.56057l0.85687,-0.68069l-0.56057,-0.96899l-1.01703,0.40842l-0.84886,0.34435l-0.72874,-0.56057c-0.32033,-0.24024 -0.64065,-0.42443 -0.985,-0.56858l-0.84886,-0.34435l-0.12813,-0.90492l-0.15215,-1.0811h-1.11313l-0.16016,1.0811l-0.12813,0.90492l-0.84886,0.34435c-0.32833,0.13614 -0.65667,0.32833 -1.00102,0.58459l-0.72073,0.54455l-0.83285,-0.33634l-1.01703,-0.40842l-0.56057,0.96899l0.86488,0.67268l0.71273,0.56057l-0.11211,0.90492c-0.02402,0.24024 -0.04004,0.42443 -0.04004,0.58459c0,0.16016 0.01602,0.34435 0.04004,0.5926l0.11211,0.90492l-0.71273,0.56057l-0.86488,0.67268l0.56057,0.96899l1.01703,-0.40842l0.84886,-0.34435l0.72874,0.56057c0.32033,0.24024 0.64065,0.42443 0.985,0.56858l0.84886,0.34435l0.12813,0.90492l0.15215,1.0811h1.12114l0.16016,-1.0811l0.12813,-0.90492l0.84886,-0.34435c0.32833,-0.13614 0.65667,-0.32833 1.00102,-0.58459l0.72073,-0.54455l0.83285,0.33634l1.01703,0.40842l0.56057,-0.96899l-0.86488,-0.67268l-0.71273,-0.56057l0.11211,-0.90492c0.02402,-0.24024 0.04004,-0.41642 0.04004,-0.58459c0,-0.16817 -0.00801,-0.33634 -0.04004,-0.58459zM278.20503,180c0,1.7698 -1.43346,3.20326 -3.20326,3.20326c-1.7698,0 -3.20326,-1.43346 -3.20326,-3.20326c0,-1.7698 1.43346,-3.20326 3.20326,-3.20326c1.7698,0 3.20326,1.43346 3.20326,3.20326z" fill="#4a3e3b" stroke="none" stroke-width="1" stroke-linecap="butt"/><path d="M271.83333,180c0,-1.7489 1.41776,-3.16667 3.16667,-3.16667c1.7489,0 3.16667,1.41776 3.16667,3.16667c0,1.7489 -1.41776,3.16667 -3.16667,3.16667c-1.7489,0 -3.16667,-1.41776 -3.16667,-3.16667z" fill="#4a3e3b" stroke="#f9ddd9" stroke-width="1" stroke-linecap="butt"/></g></g></svg>