<svg version="1.1" xmlns="http://www.w3.org/2000/svg" xmlns:xlink="http://www.w3.org/1999/xlink" width="35.5" height="35.5" viewBox="0,0,35.5,35.5"><g transform="translate(-257.25,-162.25)"><g data-paper-data="{&quot;isPaintingLayer&quot;:true}" fill-rule="nonzero" stroke="none" stroke-width="0" stroke-linecap="butt" stroke-linejoin="miter" stroke-miterlimit="10" stroke-dasharray="" stroke-dashoffset="0" style="mix-blend-mode: normal"><path d="M257.25,180c0,-9.80304 7.94696,-17.75 17.75,-17.75c9.80304,0 17.75,7.94696 17.75,17.75c0,9.80304 -7.94696,17.75 -17.75,17.75c-9.80304,0 -17.75,-7.94696 -17.75,-17.75z" fill="#f0cdc7"/><path d="M261.77436,179.84634c0,-7.26234 5.92132,-13.14963 13.22564,-13.14963c7.30432,0 13.22564,5.88729 13.22564,13.14963c0,7.26234 -5.92132,13.14963 -13.22564,13.14963c-7.30432,0 -13.22564,-5.88729 -13.22564,-13.14963z" fill="#f9ddd9"/><path d="M279.9001,186.53868l-5.51171,-6.68614l0.82111,-0.67688l5.51171,6.68614z" data-paper-data="{&quot;origPos&quot;:null,&quot;origRot&quot;:0}" fill="#4a3e3b"/><path d="M273.07022,179.66476c0,-0.88156 0.71464,-1.5962 1.5962,-1.5962c0.88156,0 1.5962,0.71464 1.5962,1.5962c0,0.88156 -0.71464,1.5962 -1.5962,1.5962c-0.88156,0 -1.5962,-0.71464 -1.5962,-1.5962z" data-paper-data="{&quot;origPos&quot;:null}" fill="#f06f59"/><path d="M273.98233,194.03055v-14.59381h1.52019v14.59381z" data-paper-data="{&quot;origPos&quot;:null}" fill="#f06f59"/><path d="M273.84721,180.53249z" data-paper-data="{&quot;origPos&quot;:null}" fill="#fafafa"/></g></g></svg>