<svg version="1.1" xmlns="http://www.w3.org/2000/svg" xmlns:xlink="http://www.w3.org/1999/xlink" width="35.5" height="35.5" viewBox="0,0,35.5,35.5"><g transform="translate(-257.25,-162.25)"><g data-paper-data="{&quot;isPaintingLayer&quot;:true}" fill-rule="nonzero" stroke="none" stroke-width="0" stroke-linejoin="miter" stroke-miterlimit="10" stroke-dasharray="" stroke-dashoffset="0" style="mix-blend-mode: normal"><path d="M257.25,180c0,-9.80304 7.94696,-17.75 17.75,-17.75c9.80304,0 17.75,7.94696 17.75,17.75c0,9.80304 -7.94696,17.75 -17.75,17.75c-9.80304,0 -17.75,-7.94696 -17.75,-17.75z" fill="#f0cdc7" stroke-linecap="butt"/><path d="M261.77436,179.84634c0,-7.26234 5.92132,-13.14963 13.22564,-13.14963c7.30432,0 13.22564,5.88729 13.22564,13.14963c0,7.26234 -5.92132,13.14963 -13.22564,13.14963c-7.30432,0 -13.22564,-5.88729 -13.22564,-13.14963z" fill="#f9ddd9" stroke-linecap="butt"/><g><path d="M269.62536,171.87539c5.16757,3.07246 13.36558,7.6598 13.36558,7.6598c0,0 1.13269,0.50301 0,1.17242c-5.135,3.03475 -12.73028,7.35471 -13.24834,7.62072c-1.02666,0.52716 -1.05518,-0.84201 -1.05518,-0.84201v-15.06382c0,0 -0.14633,-1.19179 0.93794,-0.54713z" data-paper-data="{&quot;origPos&quot;:null}" fill="#ec4f24" stroke-linecap="round"/><path d="M270.06173,180.55143c0,-3.315 2.68734,-6.00234 6.00234,-6.00234c3.315,0 6.50809,3.13503 5.84871,6.77261c-0.01114,0.06142 -0.07709,0.08099 -0.12773,0.11751c-0.05739,0.04137 -0.12489,0.0655 -0.12489,0.0655l-7.41189,4.32123c0,0 -4.18653,-1.9595 -4.18653,-5.2745z" data-paper-data="{&quot;origPos&quot;:null}" fill="#f9d414" stroke-linecap="butt"/><path d="M272.37103,180.30622c0,-2.07251 1.6801,-3.75261 3.75261,-3.75261c2.07251,0 3.75261,1.6801 3.75261,3.75261c0,2.07251 -1.6801,3.75261 -3.75261,3.75261c-2.07251,0 -3.75261,-1.6801 -3.75261,-3.75261z" data-paper-data="{&quot;origPos&quot;:null}" fill="#ff8900" stroke-linecap="butt"/><path d="M275.74377,180.65369v-1.8994h0.91452v1.8994z" data-paper-data="{&quot;origPos&quot;:null}" fill="#ffecd6" stroke-linecap="butt"/><path d="M275.74377,179.03046v-0.83593h1.8994v0.83593z" data-paper-data="{&quot;origPos&quot;:null}" fill="#fafafa" stroke-linecap="butt"/><path d="M274.45512,181.39144c0,-0.60839 0.4932,-1.10159 1.10159,-1.10159c0.39115,0 1.09561,0.02294 1.09561,0.02294c0,0 0.00598,0.7944 0.00598,1.07865c0,0.60839 -0.4932,1.10159 -1.10159,1.10159c-0.60839,0 -1.10159,-0.4932 -1.10159,-1.10159z" data-paper-data="{&quot;origPos&quot;:null}" fill="#fafafa" stroke-linecap="butt"/></g></g></g></svg>