<svg version="1.1" xmlns="http://www.w3.org/2000/svg" xmlns:xlink="http://www.w3.org/1999/xlink" width="357.3136" height="248.2045" viewBox="0,0,357.3136,248.2045"><g transform="translate(-69.6427,-26.9375)"><g data-paper-data="{&quot;isPaintingLayer&quot;:true}" fill-rule="nonzero" stroke-linejoin="miter" stroke-miterlimit="10" stroke-dasharray="" stroke-dashoffset="0" style="mix-blend-mode: normal"><path d="M120.25056,182.66707c0,-16.71922 0,-57.94345 0,-87.89713c0,-15.63042 0,-28.19191 0,-32.60115c0,-3.31774 2.88368,-6.05943 6.34043,-6.05943c13.12575,0 95.45951,0 120.49828,0c4.55598,0 7.21502,3.67397 7.21502,6.52468c0,11.99986 0,93.33536 0,119.56779c0,5.01176 -3.02216,7.96126 -8.14551,7.96126c-26.34992,0 -108.27959,0 -120.49828,0c-2.99288,0 -5.40994,-2.7683 -5.40994,-7.49602z" fill="#ffd4cd" stroke="#9e6e61" stroke-width="0" stroke-linecap="butt"/><path d="M76.6427,28.3125l-6.75,6.125" fill="none" stroke="none" stroke-width="0" stroke-linecap="round"/><path d="M77.0177,26.9375l-7.375,6.5" fill="none" stroke="none" stroke-width="0" stroke-linecap="round"/><text transform="translate(279.42431,78.4556) scale(0.5,0.5)" font-size="40" xml:space="preserve" fill="#4a3e3b" fill-rule="nonzero" stroke="none" stroke-width="1" stroke-linecap="butt" stroke-linejoin="miter" stroke-miterlimit="10" stroke-dasharray="" stroke-dashoffset="0" font-family="&quot;Microsoft YaHei&quot;, &quot;微软雅黑&quot;, STXihei, &quot;华文细黑&quot;" font-weight="normal" text-anchor="start" style="mix-blend-mode: normal"><tspan x="0" dy="0">BETA测试音乐</tspan></text><text transform="translate(279.42431,97.97093) scale(0.34572,0.34572)" font-size="40" xml:space="preserve" fill="#c1a29b" fill-rule="nonzero" stroke="none" stroke-width="1" stroke-linecap="butt" stroke-linejoin="miter" stroke-miterlimit="10" stroke-dasharray="" stroke-dashoffset="0" font-family="&quot;Microsoft YaHei&quot;, &quot;微软雅黑&quot;, STXihei, &quot;华文细黑&quot;" font-weight="normal" text-anchor="start" style="mix-blend-mode: normal"><tspan x="0" dy="0">未知</tspan></text><path d="M424.4563,219.32514l-286.77786,-0.45961" fill="none" stroke="#d6afa5" stroke-width="5" stroke-linecap="round"/><path d="M238.35231,219.51632l-107.50248,-0.17229" fill="none" stroke="#874e45" stroke-width="11.5" stroke-linecap="round"/><path d="M234.58074,219.5798c0,-1.96267 1.59106,-3.55373 3.55373,-3.55373c1.96267,0 3.55373,1.59106 3.55373,3.55373c0,1.96267 -1.59106,3.55373 -3.55373,3.55373c-1.96267,0 -3.55373,-1.59106 -3.55373,-3.55373z" fill="#f9ddd9" stroke="none" stroke-width="0.5" stroke-linecap="butt"/><path d="M214.08266,261.24729l13.25472,-9.30629l0.35824,18.36767z" fill="#874e45" stroke="none" stroke-width="0" stroke-linecap="butt"/><path d="M222.08266,261.74728l13.25472,-9.30629l0.35824,18.36767z" fill="#874e45" stroke="none" stroke-width="0" stroke-linecap="butt"/><path d="M323.08266,270.80867l0.35824,-18.36767l13.25472,9.30629z" data-paper-data="{&quot;index&quot;:null}" fill="#874e45" stroke="none" stroke-width="0" stroke-linecap="butt"/><path d="M315.08266,271.30867l0.35824,-18.36767l13.25472,9.30629z" data-paper-data="{&quot;index&quot;:null}" fill="#874e45" stroke="none" stroke-width="0" stroke-linecap="butt"/><text transform="translate(302.45475,146.30377) scale(0.34167,0.34167)" font-size="40" xml:space="preserve" fill="#c1a29b" fill-rule="nonzero" stroke="none" stroke-width="1" stroke-linecap="butt" stroke-linejoin="miter" stroke-miterlimit="10" stroke-dasharray="" stroke-dashoffset="0" font-family="Sans Serif" font-weight="normal" text-anchor="start" style="mix-blend-mode: normal"><tspan x="0" dy="0">  连接网络以</tspan><tspan x="0" dy="46.150000000000006px">获取歌词信息</tspan></text><path d="M158.05345,139.45684c0,-4.23497 3.43312,-7.66809 7.66809,-7.66809c4.23497,0 7.66809,3.43312 7.66809,7.66809c0,4.23497 -3.43312,7.66809 -7.66809,7.66809c-4.23497,0 -7.66809,-3.43312 -7.66809,-7.66809z" fill="#dc9b91" stroke="#dcc9b7" stroke-width="0" stroke-linecap="butt"/><path d="M161.1693,123.25884c0,-13.8456 11.22408,-25.06966 25.06968,-25.06966c13.8456,0 25.06968,11.22407 25.06968,25.06966c0,13.8456 -11.22408,25.06968 -25.06968,25.06968c-13.8456,0 -25.06968,-11.22408 -25.06968,-25.06968z" fill="#874e45" stroke="#dcc9b7" stroke-width="0" stroke-linecap="butt"/><path d="M238.67795,124.61188c0,20.94206 -22.95025,37.91895 -51.26081,37.91895c-28.31056,0 -51.26081,-16.97689 -51.26081,-37.91895c0,-20.94206 22.95025,-37.91895 51.26081,-37.91895c28.31056,0 51.26081,16.97689 51.26081,37.91895z" fill="none" stroke="#874e45" stroke-width="1.5" stroke-linecap="butt"/><path d="M213.53716,101.04849c0,-5.60792 4.54611,-10.15403 10.15403,-10.15403c5.60791,0 10.15403,4.54611 10.15403,10.15403c0,5.60792 -4.54611,10.15403 -10.15403,10.15403c-5.60792,0 -10.15403,-4.54612 -10.15403,-10.15403z" fill="#dc9b91" stroke="#dcc9b7" stroke-width="0" stroke-linecap="butt"/><path d="M269.08266,275.142l0.48982,-25.11406l18.12314,12.72446z" data-paper-data="{&quot;index&quot;:null}" fill="#874e45" stroke="none" stroke-width="0" stroke-linecap="butt"/></g></g></svg>