<svg version="1.1" xmlns="http://www.w3.org/2000/svg" xmlns:xlink="http://www.w3.org/1999/xlink" width="577.39524" height="539.24031" viewBox="0,0,577.39524,539.24031"><defs><radialGradient cx="335.67129" cy="40.43614" r="154.86525" gradientUnits="userSpaceOnUse" id="color-1"><stop offset="0" stop-color="#a65b72"/><stop offset="1" stop-color="#d26463"/></radialGradient><radialGradient cx="243.37183" cy="92.27353" r="58.46208" gradientUnits="userSpaceOnUse" id="color-2"><stop offset="0" stop-color="#ff8755"/><stop offset="1" stop-color="#e16355"/></radialGradient></defs><g transform="translate(8.41895,90.17629)"><g data-paper-data="{&quot;isPaintingLayer&quot;:true}" fill-rule="nonzero" stroke-width="0" stroke-linecap="butt" stroke-linejoin="miter" stroke-miterlimit="10" stroke-dasharray="" stroke-dashoffset="0" style="mix-blend-mode: normal"><g><path d="M69.77788,189.49998c0,-110.23899 89.36635,-199.60535 199.60535,-199.60535c110.23899,0 199.60535,89.36636 199.60535,199.60535c0,110.23899 -89.36636,199.60535 -199.60535,199.60535c-110.23899,0 -199.60535,-89.36636 -199.60535,-199.60535z" fill="#6380bd" stroke="#ffd7b5"/><path d="M291.84795,104.80245c13.09877,24.3418 0.96924,56.31595 -27.09208,71.41626c-28.06131,15.10031 -61.42816,7.6086 -74.52693,-16.73321c-13.09877,-24.3418 -0.96923,-56.31595 27.09208,-71.41626c28.06132,-15.10031 61.42816,-7.6086 74.52693,16.7332z" fill="#f16d54" stroke="none"/><path d="M327.981,108.35391c14.39865,26.75741 4.33712,60.144 -22.47306,74.57105c-26.81017,14.42705 -60.21653,4.43133 -74.61518,-22.32608c-14.39865,-26.75741 -4.33712,-60.144 22.47305,-74.57105c26.81017,-14.42705 60.21653,-4.43133 74.61518,22.32608z" fill="#fd7543" stroke="none"/><path d="M388.75057,63.07035c36.99653,68.75167 1.35164,159.80611 -79.61508,203.37578c-80.96672,43.56969 -176.59483,23.15565 -213.59137,-45.596c-36.99653,-68.75167 -1.35164,-159.80611 79.61508,-203.37578c80.96672,-43.56969 176.59483,-23.15565 213.59137,45.596z" fill="#6271bd" stroke="none"/><path d="M402.24289,77.61931c41.49611,77.11335 7.51579,176.01341 -75.89717,220.89946c-83.41296,44.88605 -184.67178,18.76065 -226.16789,-58.3527c-41.49611,-77.11335 -7.51579,-176.01341 75.89717,-220.89946c83.41296,-44.88605 184.67178,-18.76065 226.16789,58.3527z" fill="#786992" stroke="none"/><path d="M408.39219,79.40644c41.82151,77.71803 6.17592,178.14635 -79.61664,224.3129c-85.79255,46.16655 -189.2442,20.58901 -231.0657,-57.12903c-41.82151,-77.71803 -6.17593,-178.14634 79.61663,-224.31289c85.79255,-46.16655 189.24421,-20.58901 231.0657,57.12902z" fill="#8c688c" stroke="none"/><path d="M371.17563,59.16444c31.09709,57.78856 -4.75043,137.49117 -80.06765,178.02075c-75.31723,40.52959 -161.58307,26.53843 -192.68015,-31.25013c-31.09709,-57.78856 4.75042,-137.49117 80.06765,-178.02075c75.31723,-40.52959 161.58308,-26.53843 192.68017,31.25013z" fill="url(#color-1)" stroke="none"/><path d="M182.72805,65.71027c4.92659,1.64251 50.24085,-31.56754 53.07293,-27.80437c8.49623,11.28945 -37.51654,76.27915 -53.66211,102.13594c-21.27301,34.06829 -55.49958,56.02453 -76.44721,49.04063c-20.94761,-6.9839 -20.68383,-40.26327 0.58919,-74.33156c0,0 12.17321,-26.86996 24.4857,-41.72031c12.20447,-14.72008 22.50458,-26.6466 41.28369,-30.06876c6.13768,-1.11849 -10.26979,15.76454 10.67783,22.74844z" data-paper-data="{&quot;origRot&quot;:0}" fill="#b95f5f" stroke="none"/><path d="M179.36819,73.0168c4.28398,1.77588 41.12249,-26.43656 43.73482,-22.81675c7.83698,10.85942 -27.90937,68.33416 -40.29048,91.31577c-16.31306,30.28003 -44.30381,48.70561 -62.51912,41.15466c-18.21532,-7.55095 -19.7574,-38.219 -3.44434,-68.49903c0,0 36.70807,-60.57855 52.21535,-62.69456c5.1691,-0.70535 -7.91154,13.98896 10.30376,21.5399z" data-paper-data="{&quot;origRot&quot;:0}" fill="#c26778" stroke="none"/><path d="M326.21439,60.08878c20.59807,38.27795 -3.32899,91.16947 -53.44257,118.13652c-42.8186,23.04148 -129.85658,46.47167 -146.08417,30.88914c-5.4092,-5.19417 9.50483,-46.07298 5.95453,-52.67062c-20.59807,-38.27795 15.42385,-89.8682 65.53743,-116.83525c50.11359,-26.96704 107.43672,-17.79773 128.03478,20.48021z" fill="#d26463" stroke="none"/><path d="M299.02969,74.71737c18.59826,34.56165 1.74743,79.76027 -37.63735,100.95395c-39.56358,21.28989 -48.15984,-30.00295 -59.83196,-43.06363c-3.89071,-4.35355 -45.30169,42.85665 -48.04087,37.76636c-18.59826,-34.56165 1.13782,-98.66784 40.5226,-119.86151c39.38478,-21.19367 86.38933,-10.35679 104.98759,24.20485z" fill="#e16355" stroke="none"/><path d="M162.45722,87.208c3.52622,6.55287 -1.95707,21.91784 -11.69832,27.15978c-5.47071,2.94389 -4.98744,-15.25339 -11.23531,-14.94001c-6.33981,0.31799 -18.69812,14.84336 -21.80367,9.07223c-3.52622,-6.55287 7.81948,-17.65394 17.56073,-22.89589c9.74125,-5.24194 23.65037,-4.94898 27.17658,1.60389z" fill="#a66480" stroke="none"/><path d="M157.93332,88.32415c2.76566,5.1395 -1.53496,17.19045 -9.17516,21.30179c-4.29075,2.30894 -3.91172,-11.96344 -8.81201,-11.71766c-4.9724,0.24942 -14.6652,11.64186 -17.10093,7.11548c-2.76566,-5.1395 6.13293,-13.84624 13.77312,-17.95757c7.64019,-4.11133 18.5493,-3.88155 21.31496,1.25795z" fill="#4f5379" stroke="none"/><path d="M152.8926,90.10238c2.14741,3.99059 -1.19184,13.34766 -7.12412,16.53993c-3.33159,1.79279 -3.03728,-9.28912 -6.84214,-9.09826c-3.86086,0.19366 -11.3869,9.03941 -13.27815,5.52486c-2.14742,-3.99061 4.76196,-10.75102 10.69424,-13.94328c5.93228,-3.19227 14.40274,-3.01386 16.55016,0.97675z" fill="#3c3f5c" stroke="none"/><path d="M215.5809,9.60665c3.09971,5.76027 -18.47966,9.51037 -39.03412,20.5711c-20.55446,11.06074 -32.30048,25.24364 -35.40019,19.48337c-3.09971,-5.76027 11.05017,-19.3964 31.60463,-30.45713c20.55446,-11.06074 39.72996,-15.35761 42.82967,-9.59734z" fill="#6283bd" stroke="none"/><path d="M279.30254,78.26799c12.22719,22.72211 -0.90978,53.54515 -29.34226,68.84519c-28.43247,15.30003 -61.39363,9.28325 -73.62082,-13.43886c-12.22719,-22.72211 0.90978,-53.54516 29.34226,-68.8452c28.43247,-15.30003 61.39363,-9.28324 73.62082,13.43887z" fill="url(#color-2)" stroke="none"/><path d="M272.22623,81.40497c0.27782,2.18369 -6.65424,4.94268 -15.48318,6.16239c-8.82896,1.2197 -16.21146,0.43824 -16.48927,-1.74544c-0.27782,-2.18369 6.65423,-4.94268 15.48317,-6.16239c8.82896,-1.2197 16.21146,-0.43824 16.48928,1.74544z" data-paper-data="{&quot;origRot&quot;:0}" fill="#d26165" stroke="none"/><path d="M164.68497,449.06403l-173.10392,-321.68372l404.29132,-217.55659l173.10392,321.68372z" fill="none" stroke="none"/></g></g></g></svg>