<svg version="1.1" xmlns="http://www.w3.org/2000/svg" xmlns:xlink="http://www.w3.org/1999/xlink" width="384.81471" height="161.17115" viewBox="0,0,384.81471,161.17115"><g transform="translate(-139.46675,-50.77148)"><g data-paper-data="{&quot;isPaintingLayer&quot;:true}" fill-rule="nonzero" stroke-linejoin="miter" stroke-miterlimit="10" stroke-dasharray="" stroke-dashoffset="0" style="mix-blend-mode: normal"><text transform="translate(204.41824,144.15036) scale(0.9292,0.9292)" font-size="40" xml:space="preserve" fill="#4a3e3b" fill-rule="nonzero" stroke="none" stroke-width="1" stroke-linecap="butt" stroke-linejoin="miter" stroke-miterlimit="10" stroke-dasharray="" stroke-dashoffset="0" font-family="Sans Serif" font-weight="normal" text-anchor="start" style="mix-blend-mode: normal"><tspan x="0" dy="0">Chrome</tspan></text><path d="M160.71675,190.69263l228.5665,-1.38525" fill="none" stroke="#eed3cf" stroke-width="42.5" stroke-linecap="round"/><text transform="translate(162.02921,196.3482) scale(0.45331,0.45331)" font-size="40" xml:space="preserve" fill-opacity="0.36471" fill="#4a3e3b" fill-rule="nonzero" stroke="none" stroke-width="1" stroke-linecap="butt" stroke-linejoin="miter" stroke-miterlimit="10" stroke-dasharray="" stroke-dashoffset="0" font-family="Sans Serif" font-weight="normal" text-anchor="start" style="mix-blend-mode: normal"><tspan x="0" dy="0">浏览网页...</tspan></text><path d="M510.66867,57.35831c0,0.72894 -0.58843,1.31736 -1.31737,1.31736c-0.72894,0 -1.31736,-0.58843 -1.31736,-1.31736c0,-0.72894 0.58843,-1.31737 1.31736,-1.31737c0.72894,0 1.31737,0.58843 1.31737,1.31737zM510.66867,52.08885c0,0.72894 -0.58843,1.31736 -1.31737,1.31736c-0.72894,0 -1.31736,-0.58843 -1.31736,-1.31736c0,-0.72894 0.58843,-1.31737 1.31736,-1.31737c0.72894,0 1.31737,0.58843 1.31737,1.31737zM510.66867,62.62777c0,0.72016 -0.59721,1.31736 -1.31737,1.31736c-0.72016,0 -1.31736,-0.5972 -1.31736,-1.31736c0,-0.72016 0.58843,-1.31736 1.31736,-1.31736c0.72894,0 1.31737,0.5972 1.31737,1.31736zM511.98604,61.74953h12.29541v1.75649h-12.29541zM511.98604,56.48007h12.29541v1.75648h-12.29541zM524.28146,51.2106v1.75649h-12.29541v-1.75649z" fill="#4a3e3b" stroke="none" stroke-width="1" stroke-linecap="butt"/></g></g></svg>