<svg version="1.1" xmlns="http://www.w3.org/2000/svg" xmlns:xlink="http://www.w3.org/1999/xlink" width="35.5" height="35.5" viewBox="0,0,35.5,35.5"><defs><linearGradient x1="239.80867" y1="179.86947" x2="243.3592" y2="183.90861" gradientUnits="userSpaceOnUse" id="color-1"><stop offset="0" stop-color="#4b5f68"/><stop offset="1" stop-color="#4b5f68" stop-opacity="0"/></linearGradient></defs><g transform="translate(-222.25,-162.25)"><g data-paper-data="{&quot;isPaintingLayer&quot;:true}" fill-rule="nonzero" stroke="none" stroke-width="0" stroke-linejoin="miter" stroke-miterlimit="10" stroke-dasharray="" stroke-dashoffset="0" style="mix-blend-mode: normal"><path d="M222.25,180c0,-9.80304 7.94696,-17.75 17.75,-17.75c9.80304,0 17.75,7.94696 17.75,17.75c0,9.80304 -7.94696,17.75 -17.75,17.75c-9.80304,0 -17.75,-7.94696 -17.75,-17.75z" fill="#ffce9c" stroke-linecap="butt"/><path d="M226.77436,179.84634c0,-7.26234 5.92132,-13.14963 13.22564,-13.14963c7.30432,0 13.22564,5.88729 13.22564,13.14963c0,7.26234 -5.92132,13.14963 -13.22564,13.14963c-7.30432,0 -13.22564,-5.88729 -13.22564,-13.14963z" fill="#ffe2c5" stroke-linecap="butt"/><g><g data-paper-data="{&quot;origPos&quot;:null}" fill="#65818f"><g data-paper-data="{&quot;origPos&quot;:null,&quot;index&quot;:null}" stroke-linecap="round"><path d="M249.12872,183.11159c0,0 -1.1064,1.87739 -1.81143,3.08083c-0.23881,0.40764 -0.51089,0.10883 -0.92517,0.00817c-1.20488,-0.29279 -2.25567,-0.88779 -3.16666,-0.04663l3.85817,-5.27682" data-paper-data="{&quot;origPos&quot;:null,&quot;index&quot;:null,&quot;origRot&quot;:0}"/><path d="M244.34444,185.53583l2.73525,-5.93706c-0.29211,1.20504 0.73874,1.83397 1.58041,2.74449c0.2894,0.31307 0.68279,0.40554 0.44268,0.81243c-0.70884,1.20121 -1.81143,3.08083 -1.81143,3.08083" data-paper-data="{&quot;origPos&quot;:null,&quot;index&quot;:null,&quot;origRot&quot;:0}"/></g><g data-paper-data="{&quot;origPos&quot;:null,&quot;index&quot;:null}" stroke-linecap="round"><path d="M241.83296,189.37545c0,0 -2.17915,-0.0022 -3.57391,0c-0.47244,0.00075 -0.35277,-0.38524 -0.47597,-0.79339c-0.3583,-1.18704 -0.37798,-2.39444 -1.56482,-2.75341l6.50431,0.65132" data-paper-data="{&quot;origPos&quot;:null,&quot;index&quot;:null}"/><path d="M237.31828,186.47997l6.50431,-0.65132c-1.18684,0.35897 -1.20651,1.56636 -1.56482,2.75341c-0.1232,0.40814 -0.00352,0.79414 -0.47597,0.79339c-1.39476,-0.0022 -3.57391,0 -3.57391,0" data-paper-data="{&quot;origPos&quot;:null,&quot;index&quot;:null}"/></g><g data-paper-data="{&quot;origPos&quot;:null}" stroke-linecap="round"><path d="M247.08361,179.12285l-3.85817,-5.27682c0.911,0.84116 1.96178,0.24614 3.16666,-0.04663c0.41428,-0.10067 0.68636,-0.39947 0.92517,0.00817c0.70504,1.20345 1.81143,3.08083 1.81143,3.08083" data-paper-data="{&quot;origPos&quot;:null,&quot;index&quot;:null,&quot;origRot&quot;:0}"/><path d="M247.29135,173.76348c0,0 1.1026,1.87962 1.81143,3.08083c0.2401,0.40688 -0.1533,0.49936 -0.44268,0.81243c-0.84166,0.91052 -1.87251,1.53945 -1.58041,2.74449l-2.73525,-5.93706" data-paper-data="{&quot;origPos&quot;:null,&quot;index&quot;:null,&quot;origRot&quot;:0}"/></g><g data-paper-data="{&quot;origPos&quot;:null}" stroke-linecap="round"><path d="M242.72259,173.52003l-6.50431,0.65132c1.18684,-0.35897 1.20652,-1.56636 1.56482,-2.75341c0.1232,-0.40814 0.00352,-0.79414 0.47597,-0.79339c1.39476,0.0022 3.57391,0 3.57391,0" data-paper-data="{&quot;origPos&quot;:null,&quot;index&quot;:null}"/><path d="M238.2079,170.62455c0,0 2.17915,0.0022 3.57391,0c0.47244,-0.00075 0.35277,0.38524 0.47597,0.79339c0.3583,1.18704 0.37797,2.39444 1.56482,2.75341l-6.50431,-0.65132" data-paper-data="{&quot;origPos&quot;:null,&quot;index&quot;:null}"/></g><g data-paper-data="{&quot;origPos&quot;:null,&quot;index&quot;:null}" stroke-linecap="round"><path d="M232.91639,180.87714l3.85817,5.27682c-0.911,-0.84116 -1.96178,-0.24614 -3.16666,0.04663c-0.41428,0.10067 -0.68636,0.39947 -0.92517,-0.00817c-0.70504,-1.20345 -1.81143,-3.08083 -1.81143,-3.08083" data-paper-data="{&quot;origPos&quot;:null,&quot;index&quot;:null,&quot;origRot&quot;:0}"/><path d="M232.70865,186.23652c0,0 -1.1026,-1.87962 -1.81143,-3.08083c-0.2401,-0.40688 0.1533,-0.49935 0.44269,-0.81243c0.84166,-0.91052 1.8725,-1.53945 1.5804,-2.74449l2.73525,5.93706" data-paper-data="{&quot;origPos&quot;:null,&quot;index&quot;:null,&quot;origRot&quot;:0}"/></g><g data-paper-data="{&quot;origPos&quot;:null,&quot;index&quot;:null}" stroke-linecap="round"><path d="M230.87129,176.88841c0,0 1.1064,-1.87739 1.81143,-3.08083c0.23881,-0.40764 0.51089,-0.10883 0.92517,-0.00817c1.20488,0.29278 2.25567,0.88779 3.16666,0.04663l-3.85817,5.27682" data-paper-data="{&quot;origPos&quot;:null,&quot;index&quot;:null,&quot;origRot&quot;:0}"/><path d="M235.65556,174.46416l-2.73525,5.93706c0.29211,-1.20504 -0.73874,-1.83397 -1.5804,-2.74449c-0.2894,-0.31307 -0.68279,-0.40554 -0.44269,-0.81243c0.70884,-1.20121 1.81143,-3.08083 1.81143,-3.08083" data-paper-data="{&quot;origPos&quot;:null,&quot;index&quot;:null,&quot;origRot&quot;:0}"/></g><path d="M233.23199,179.97501c0,-3.73912 3.03116,-6.77028 6.77028,-6.77028c3.73912,0 6.77028,3.03116 6.77028,6.77028c0,3.73912 -3.03116,6.77028 -6.77028,6.77028c-3.73912,0 -6.77028,-3.03116 -6.77028,-6.77028z" data-paper-data="{&quot;origPos&quot;:null}" stroke-linecap="butt"/><path d="M233.00152,180.69525v-1.61335h1.38287v1.61335z" data-paper-data="{&quot;origPos&quot;:null}" stroke-linecap="butt"/><path d="M245.38969,180.92574v-1.72858h1.55572v1.72858z" data-paper-data="{&quot;origPos&quot;:null}" stroke-linecap="butt"/></g><path d="M239.14335,187.61447l-3.55053,-4.03914l8.43169,-7.41173l3.55053,4.03913z" data-paper-data="{&quot;origRot&quot;:0,&quot;origPos&quot;:null}" fill="url(#color-1)" stroke-linecap="butt"/><path d="M234.38691,179.99999c0,-3.10002 2.51306,-5.61309 5.61309,-5.61309c3.10002,0 5.61309,2.51306 5.61309,5.61309c0,3.10002 -2.51306,5.61309 -5.61309,5.61309c-3.10002,0 -5.61309,-2.51306 -5.61309,-5.61309z" data-paper-data="{&quot;origPos&quot;:null}" fill="#d4d9dd" stroke-linecap="butt"/><path d="M236.23553,179.99999c0,-2.07906 1.68541,-3.76447 3.76447,-3.76447c2.07906,0 3.76447,1.68541 3.76447,3.76447c0,2.07906 -1.68541,3.76447 -3.76447,3.76447c-2.07906,0 -3.76447,-1.68541 -3.76447,-3.76447z" data-paper-data="{&quot;origPos&quot;:null}" fill="#4b5f68" stroke-linecap="butt"/><path d="M237.61359,179.99999c0,-1.31797 1.06843,-2.38641 2.38641,-2.38641c1.31797,0 2.38641,1.06843 2.38641,2.38641c0,1.31797 -1.06843,2.38641 -2.38641,2.38641c-1.31797,0 -2.38641,-1.06843 -2.38641,-2.38641z" data-paper-data="{&quot;origPos&quot;:null}" fill="#aaffec" stroke-linecap="butt"/><path d="" data-paper-data="{&quot;origPos&quot;:null,&quot;origRot&quot;:0}" fill="#3a67c4" stroke-linecap="round"/></g></g></g></svg>