<svg version="1.1" xmlns="http://www.w3.org/2000/svg" xmlns:xlink="http://www.w3.org/1999/xlink" width="35.5" height="35.5" viewBox="0,0,35.5,35.5"><g transform="translate(-257.25,-162.25)"><g data-paper-data="{&quot;isPaintingLayer&quot;:true}" stroke="none" stroke-linecap="butt" stroke-linejoin="miter" stroke-miterlimit="10" stroke-dasharray="" stroke-dashoffset="0" style="mix-blend-mode: normal"><path d="M257.25,180c0,-9.80304 7.94696,-17.75 17.75,-17.75c9.80304,0 17.75,7.94696 17.75,17.75c0,9.80304 -7.94696,17.75 -17.75,17.75c-9.80304,0 -17.75,-7.94696 -17.75,-17.75z" fill="#f0cdc7" fill-rule="nonzero" stroke-width="0"/><path d="M261.77436,180c0,-7.26234 5.92132,-13.14963 13.22564,-13.14963c7.30432,0 13.22564,5.88729 13.22564,13.14963c0,7.26234 -5.92132,13.14963 -13.22564,13.14963c-7.30432,0 -13.22564,-5.88729 -13.22564,-13.14963z" fill="#f9ddd9" fill-rule="nonzero" stroke-width="0"/><path d="M272.60954,173.31536l5.39544,3.11506l-2.4546,2.54182l-5.20798,-5.39303c0.57995,-0.54268 1.48376,-0.71613 2.26714,-0.26384zM269.74298,174.97038v9.6902c0,0.10341 0.00787,0.20406 0.02294,0.30166l4.91002,-5.0845l-4.92383,-5.09879c-0.00603,0.06267 -0.00914,0.12651 -0.00914,0.19142zM275.55038,180.78327l2.37738,2.46186l-5.31822,3.07049c-0.7549,0.43579 -1.62161,0.29062 -2.20261,-0.20618zM276.42482,179.87775l2.70301,-2.79904l1.87367,1.08175c1.27403,0.73556 1.27403,2.57448 0,3.31002l-1.95089,1.12639z" fill="#4a3e3b" fill-rule="evenodd" stroke-width="1"/></g></g></svg>