<svg version="1.1" xmlns="http://www.w3.org/2000/svg" xmlns:xlink="http://www.w3.org/1999/xlink" width="35.5" height="35.5" viewBox="0,0,35.5,35.5"><g transform="translate(-257.25,-162.25)"><g data-paper-data="{&quot;isPaintingLayer&quot;:true}" fill-rule="nonzero" stroke="none" stroke-linecap="butt" stroke-linejoin="miter" stroke-miterlimit="10" stroke-dasharray="" stroke-dashoffset="0" style="mix-blend-mode: normal"><path d="M257.25,180c0,-9.80304 7.94696,-17.75 17.75,-17.75c9.80304,0 17.75,7.94696 17.75,17.75c0,9.80304 -7.94696,17.75 -17.75,17.75c-9.80304,0 -17.75,-7.94696 -17.75,-17.75z" fill="#f0cdc7" stroke-width="0"/><path d="M261.77436,180c0,-7.26234 5.92132,-13.14963 13.22564,-13.14963c7.30432,0 13.22564,5.88729 13.22564,13.14963c0,7.26234 -5.92132,13.14963 -13.22564,13.14963c-7.30432,0 -13.22564,-5.88729 -13.22564,-13.14963z" fill="#f9ddd9" stroke-width="0"/><path d="M263,168h24v24h-24z" fill="none" stroke-width="1"/><path d="M282.01042,177.19583v7.01042c0,0.77115 -0.63094,1.40208 -1.40208,1.40208h-11.21667c-0.77115,0 -1.40208,-0.63094 -1.40208,-1.40208l0.00701,-8.4125c0,-0.77115 0.62393,-1.40208 1.39507,-1.40208h4.20625l1.40208,1.40208h5.60833c0.77115,0 1.40208,0.63094 1.40208,1.40208zM280.60833,177.19583h-11.21667v7.01042h11.21667z" fill="#4a3e3b" stroke-width="1"/></g></g></svg>