<svg version="1.1" xmlns="http://www.w3.org/2000/svg" xmlns:xlink="http://www.w3.org/1999/xlink" width="35.5" height="35.5" viewBox="0,0,35.5,35.5"><g transform="translate(-257.25,-162.25)"><g data-paper-data="{&quot;isPaintingLayer&quot;:true}" stroke="none" stroke-linecap="butt" stroke-linejoin="miter" stroke-miterlimit="10" stroke-dasharray="" stroke-dashoffset="0" style="mix-blend-mode: normal"><path d="M257.25,180c0,-9.80304 7.94696,-17.75 17.75,-17.75c9.80304,0 17.75,7.94696 17.75,17.75c0,9.80304 -7.94696,17.75 -17.75,17.75c-9.80304,0 -17.75,-7.94696 -17.75,-17.75z" fill="#f0cdc7" fill-rule="nonzero" stroke-width="0"/><path d="M261.77436,180c0,-7.26234 5.92132,-13.14963 13.22564,-13.14963c7.30432,0 13.22564,5.88729 13.22564,13.14963c0,7.26234 -5.92132,13.14963 -13.22564,13.14963c-7.30432,0 -13.22564,-5.88729 -13.22564,-13.14963z" fill="#f9ddd9" fill-rule="nonzero" stroke-width="0"/><path d="M272.61526,172.26784h4.76954c0.62332,0 1.1287,0.50534 1.1287,1.12871v0.42779h3.34062c0.6234,0 1.1287,0.50533 1.1287,1.12871v10.15041c0,0.6234 -0.50531,1.12871 -1.1287,1.12871h-13.70823c-0.62337,0 -1.1287,-0.50531 -1.1287,-1.12871v-10.15041c0,-0.62337 0.50534,-1.12871 1.1287,-1.12871h3.34065v-0.42779c0,-0.62337 0.50533,-1.12871 1.1287,-1.12871zM279.44129,176.08595c0,-0.4971 0.40302,-0.90007 0.90007,-0.90007c0.49713,0 0.90007,0.40297 0.90007,0.90007c0,0.49709 -0.40295,0.90006 -0.90007,0.90006c-0.49706,0 -0.90007,-0.40298 -0.90007,-0.90006zM271.05771,180.02827c0,-2.17728 1.76503,-3.94232 3.94232,-3.94232c2.17721,0 3.94229,1.76503 3.94229,3.94232c0,2.17727 -1.76508,3.9423 -3.94229,3.9423c-2.17729,0 -3.94232,-1.76503 -3.94232,-3.9423zM274.15252,178.02005c0.26872,-0.11366 0.55123,-0.17048 0.84752,-0.17048c0.29624,0 0.57872,0.05682 0.84745,0.17048c0.26045,0.11015 0.49149,0.26603 0.69309,0.46763c0.20157,0.2016 0.35744,0.43262 0.46764,0.69307c0.11367,0.26873 0.1705,0.55123 0.1705,0.84752c0,0.29629 -0.05683,0.57877 -0.1705,0.84745c-0.11019,0.26045 -0.26607,0.49149 -0.46764,0.69309c-0.20161,0.20161 -0.43265,0.35749 -0.69309,0.46764c-0.26872,0.11367 -0.55121,0.1705 -0.84745,0.1705c-0.29629,0 -0.57879,-0.05683 -0.84752,-0.1705c-0.26045,-0.11014 -0.49149,-0.26602 -0.69308,-0.46764c-0.2016,-0.20161 -0.35748,-0.43265 -0.46764,-0.69309c-0.11366,-0.26867 -0.17048,-0.55116 -0.17048,-0.84745c0,-0.29629 0.05682,-0.57879 0.17048,-0.84752c0.11016,-0.26045 0.26604,-0.49148 0.46764,-0.69307c0.20159,-0.20159 0.43262,-0.35747 0.69308,-0.46763z" fill="#4a3e3b" fill-rule="evenodd" stroke-width="1"/></g></g></svg>