<svg version="1.1" xmlns="http://www.w3.org/2000/svg" xmlns:xlink="http://www.w3.org/1999/xlink" width="35.5" height="35.5" viewBox="0,0,35.5,35.5"><g transform="translate(-257.25,-162.25)"><g data-paper-data="{&quot;isPaintingLayer&quot;:true}" stroke="none" stroke-linecap="butt" stroke-linejoin="miter" stroke-miterlimit="10" stroke-dasharray="" stroke-dashoffset="0" style="mix-blend-mode: normal"><path d="M257.25,180c0,-9.80304 7.94696,-17.75 17.75,-17.75c9.80304,0 17.75,7.94696 17.75,17.75c0,9.80304 -7.94696,17.75 -17.75,17.75c-9.80304,0 -17.75,-7.94696 -17.75,-17.75z" fill="#f0cdc7" fill-rule="nonzero" stroke-width="0"/><path d="M261.77436,180c0,-7.26234 5.92132,-13.14963 13.22564,-13.14963c7.30432,0 13.22564,5.88729 13.22564,13.14963c0,7.26234 -5.92132,13.14963 -13.22564,13.14963c-7.30432,0 -13.22564,-5.88729 -13.22564,-13.14963z" fill="#f9ddd9" fill-rule="nonzero" stroke-width="0"/><path d="M279.1826,186.66312c-4.88644,2.18393 -13.32182,-6.98849 -8.89947,-12.47557c0.00648,0.04469 0.01315,0.08932 0.01998,0.13387c0.00247,0.08256 0.00605,0.16596 0.01146,0.2509c0.0057,0.08939 0.03823,0.18461 0.0794,0.28087c0.0801,0.42566 0.17676,0.84481 0.28896,1.25686c0.02319,0.09734 0.05037,0.19194 0.0805,0.28539c0.133,0.45556 0.28501,0.90213 0.45455,1.33894c0.02149,0.07547 0.04746,0.14748 0.08339,0.21056c0.03629,0.08982 0.07332,0.17924 0.11107,0.2682c0.00332,0.01827 0.00757,0.03469 0.01395,0.04743c0.01897,0.03792 0.03673,0.0745 0.05377,0.10988c0.85892,1.96741 2.07538,3.71908 3.50856,5.17714c0.14303,0.27164 0.46017,0.52807 0.79099,0.75552c0.75574,0.67743 1.55967,1.27742 2.39401,1.79019c0.00991,0.00726 0.02007,0.01358 0.03048,0.01869c0.32199,0.19688 0.64846,0.38078 0.9784,0.55113z" data-paper-data="{&quot;index&quot;:null}" fill="#4b413f" fill-rule="evenodd" stroke-width="1"/><path d="M277.49031,182.00295c0.54335,-0.40716 1.31364,-0.29859 1.72322,0.2429l1.49532,1.97661c0.47883,0.633 0.24383,1.54702 -0.48112,1.87045l-0.01506,0.00673c-0.27117,-0.06745 -0.63432,-0.07422 -0.78306,-0.18931c-0.18209,-0.1409 -0.59171,-0.42039 -0.85521,-0.44684l-0.07324,-0.05873c-0.05911,-0.05946 -0.14275,-0.14456 -0.15286,-0.15111c-0.06019,-0.03902 -0.12011,-0.07748 -0.17986,-0.11573l-2.34845,-1.88337z" data-paper-data="{&quot;index&quot;:null}" fill="#4b413f" fill-rule="evenodd" stroke-width="1"/><path d="M271.23384,173.33786c0.58094,-0.54088 1.51415,-0.40014 1.90974,0.28801l1.23519,2.14873c0.33838,0.58865 0.13736,1.34008 -0.44972,1.68115l-1.58555,0.92113c-0.00813,-0.0171 -0.01591,-0.03151 -0.02285,-0.04243c-0.24962,-0.39226 -0.34054,-0.78117 -0.50882,-1.23609c-0.02671,-0.0722 -0.09593,-0.1715 -0.15976,-0.2709l-0.36024,-1.27923c-0.06734,-0.56633 -0.28437,-1.03843 -0.28941,-1.64199c-0.00068,-0.08211 0.01127,-0.21786 0.00396,-0.35661z" data-paper-data="{&quot;index&quot;:null}" fill="#4b413f" fill-rule="evenodd" stroke-width="1"/></g></g></svg>