<svg version="1.1" xmlns="http://www.w3.org/2000/svg" xmlns:xlink="http://www.w3.org/1999/xlink" width="35.5" height="35.5" viewBox="0,0,35.5,35.5"><g transform="translate(-257.25,-162.25)"><g data-paper-data="{&quot;isPaintingLayer&quot;:true}" stroke="none" stroke-linecap="butt" stroke-linejoin="miter" stroke-miterlimit="10" stroke-dasharray="" stroke-dashoffset="0" style="mix-blend-mode: normal"><path d="M257.25,180c0,-9.80304 7.94696,-17.75 17.75,-17.75c9.80304,0 17.75,7.94696 17.75,17.75c0,9.80304 -7.94696,17.75 -17.75,17.75c-9.80304,0 -17.75,-7.94696 -17.75,-17.75z" fill="#f0cdc7" fill-rule="nonzero" stroke-width="0"/><path d="M261.77436,179.84634c0,-7.26234 5.92132,-13.14963 13.22564,-13.14963c7.30432,0 13.22564,5.88729 13.22564,13.14963c0,7.26234 -5.92132,13.14963 -13.22564,13.14963c-7.30432,0 -13.22564,-5.88729 -13.22564,-13.14963z" fill="#f9ddd9" fill-rule="nonzero" stroke-width="0"/><path d="M270.88525,182.14461c0.22381,0.47545 0.52334,0.90076 0.89858,1.27603c0.41926,0.41919 0.90104,0.74392 1.44535,0.97419c0.5642,0.23866 1.15447,0.35799 1.7708,0.35799c0.41206,0 0.81247,-0.0534 1.20122,-0.16l-2.20943,3.8268l0.11761,0.06791c-4.29165,-0.44535 -7.63796,-4.07316 -7.63796,-8.48261c0,-1.39974 0.33721,-2.72073 0.93481,-3.88615zM274.99999,171.47634c3.12098,0 5.8504,1.67643 7.33696,4.17794h-7.33696v0.00184c-0.61634,0 -1.20661,0.11932 -1.77081,0.35795c-0.54431,0.23022 -1.02609,0.55496 -1.44535,0.97421c-0.41926,0.41926 -0.74399,0.90104 -0.97421,1.44535c-0.08857,0.20939 -0.1607,0.42236 -0.2164,0.63892l-2.41635,-4.18527c1.55598,-2.07123 4.0331,-3.41095 6.82312,-3.41095zM283.52858,180.00493c0,4.57162 -3.59701,8.30307 -8.11524,8.51873l3.23114,-5.59644c0.21925,-0.29262 0.40119,-0.60995 0.54582,-0.95199c0.23866,-0.56418 0.35799,-1.15445 0.35799,-1.77078c0,-0.61634 -0.11933,-1.20661 -0.35799,-1.77081c-0.23017,-0.54432 -0.5549,-1.02609 -0.97419,-1.44535c-0.01711,-0.01712 -0.03432,-0.03408 -0.05162,-0.05087h4.79575c0.36707,0.9519 0.56833,1.9862 0.56833,3.06751zM274.99999,176.93925c-1.80332,0 -3.2652,1.46187 -3.2652,3.2652c0,0.48117 0.10407,0.93804 0.29095,1.34932l0.03098,0.0536l-0.00471,0.00276c0.52533,1.09974 1.64793,1.85956 2.94798,1.85956c1.04736,0 1.97959,-0.49322 2.57703,-1.25994l0.45077,-0.78064c0.15309,-0.3782 0.23738,-0.79158 0.23738,-1.22466c0,-1.80333 -1.46188,-3.2652 -3.26518,-3.2652z" fill="#4a3e3b" fill-rule="evenodd" stroke-width="1"/><path d="M278.31517,180.20445c0,0.43308 -0.08794,0.86521 -0.24103,1.24341l-0.45766,0.7926c-0.59744,0.76672 -1.56913,1.27923 -2.61649,1.27923c-1.30005,0 -2.46778,-0.7883 -2.99311,-1.88804l0.00471,-0.00277l-0.03138,-0.05446c-0.18688,-0.41128 -0.29542,-0.88881 -0.29542,-1.36998c0,-1.80333 1.51188,-3.3152 3.3152,-3.3152c1.8033,0 3.31518,1.51187 3.31518,3.3152z" data-paper-data="{&quot;noHover&quot;:false,&quot;origItem&quot;:[&quot;Path&quot;,{&quot;applyMatrix&quot;:true,&quot;segments&quot;:[[[274.99999,176.93925],[1.8033,0],[-1.80332,0]],[[271.73479,180.20445],[0,-1.80333],[0,0.48117]],[[272.02574,181.55377],[-0.18688,-0.41128],[0,0]],[272.05672,181.60737],[[272.05201,181.61013],[0,0],[0.52533,1.09974]],[[274.99999,183.46969],[-1.30005,0],[1.04736,0]],[[277.57702,182.20975],[-0.59744,0.76672],[0,0]],[[278.02779,181.42911],[0,0],[0.15309,-0.3782]],[[278.26517,180.20445],[0,0.43308],[0,-1.80333]]],&quot;closed&quot;:true,&quot;fillColor&quot;:[0,0,0,1]}]}" fill="#4a3e3b" fill-rule="nonzero" stroke-width="0.5"/></g></g></svg>