<svg version="1.1" xmlns="http://www.w3.org/2000/svg" xmlns:xlink="http://www.w3.org/1999/xlink" width="479.48467" height="367" viewBox="0,0,479.48467,367"><g transform="translate(7.57955,3.5)"><g data-paper-data="{&quot;isPaintingLayer&quot;:true}" fill-rule="nonzero" stroke-linejoin="miter" stroke-miterlimit="10" stroke-dasharray="" stroke-dashoffset="0" style="mix-blend-mode: normal"><path d="M-7.57954,363.5v-367h225.57958v367z" fill="#f0cdc7" stroke="none" stroke-width="0" stroke-linecap="butt"/><text transform="translate(26.69619,82.72758) scale(0.90038,0.90371)" font-size="40" xml:space="preserve" fill="#4a3e3b" fill-rule="nonzero" stroke="none" stroke-width="1" stroke-linecap="butt" stroke-linejoin="miter" stroke-miterlimit="10" stroke-dasharray="" stroke-dashoffset="0" font-family="Sans Serif" font-weight="normal" text-anchor="start" style="mix-blend-mode: normal"><tspan x="0" dy="0">Magisk</tspan></text><path d="M47.85975,76.45251l6.75,-6.125" fill="none" stroke="none" stroke-width="0" stroke-linecap="round"/><path d="M47.60975,75.45251l7.375,-6.5" fill="none" stroke="none" stroke-width="0" stroke-linecap="round"/><path d="M43.42366,123.474l127.5665,-0.77313" fill="none" stroke="#f9ddd9" stroke-width="32.5" stroke-linecap="round"/><text transform="translate(41.38609,128.44472) scale(0.33707,0.34502)" font-size="40" xml:space="preserve" fill-opacity="0.26667" fill="#000000" fill-rule="nonzero" stroke="none" stroke-width="1" stroke-linecap="butt" stroke-linejoin="miter" stroke-miterlimit="10" stroke-dasharray="" stroke-dashoffset="0" font-family="&quot;Microsoft YaHei&quot;, &quot;微软雅黑&quot;, STXihei, &quot;华文细黑&quot;" font-weight="normal" text-anchor="start" style="mix-blend-mode: normal"><tspan x="0" dy="0">搜索...</tspan></text><path d="M173.71995,129.41129l-1.17551,1.1755l-3.94464,-3.93674v-0.62326l-0.21301,-0.2209c-0.89937,0.77315 -2.06698,1.23861 -3.33716,1.23861c-2.83225,0 -5.12803,-2.29577 -5.12803,-5.12802c0,-2.83225 2.29578,-5.12802 5.12803,-5.12802c2.83225,0 5.12802,2.29577 5.12802,5.12802c0,1.27017 -0.46546,2.43779 -1.23861,3.33716l0.2209,0.21301h0.62325zM168.59981,121.91648c0,-1.96443 -1.58574,-3.55017 -3.55017,-3.55017c-1.96443,0 -3.55017,1.58574 -3.55017,3.55017c0,1.96443 1.58574,3.55017 3.55017,3.55017c1.96443,0 3.55017,-1.58575 3.55017,-3.55017z" fill-opacity="0.43529" fill="#4a3e3b" stroke="none" stroke-width="1" stroke-linecap="butt"/><path d="M53.01043,167.69583v12.01043c0,1.32115 -1.08094,2.40208 -2.40208,2.40208h-19.21668c-1.32115,0 -2.40208,-1.08094 -2.40208,-2.40208l0.01201,-14.4125c0,-1.32115 1.06893,-2.40208 2.39007,-2.40208h7.20625l2.40208,2.40208h9.60833c1.32115,0 2.40208,1.08094 2.40208,2.40208zM50.60834,167.69583h-19.21668v12.01043h19.21668z" fill="#4a3e3b" stroke="none" stroke-width="1" stroke-linecap="butt"/><text transform="translate(60.43506,179.48213) scale(0.5,0.5)" font-size="40" xml:space="preserve" fill="#4a3e3b" fill-rule="nonzero" stroke="none" stroke-width="1" stroke-linecap="butt" stroke-linejoin="miter" stroke-miterlimit="10" stroke-dasharray="" stroke-dashoffset="0" font-family="Sans Serif" font-weight="normal" text-anchor="start" style="mix-blend-mode: normal"><tspan x="0" dy="0">Android</tspan></text><path d="M53.01044,200.69583v12.01042c0,1.32116 -1.08094,2.40208 -2.40208,2.40208h-19.21667c-1.32116,0 -2.40208,-1.08094 -2.40208,-2.40208l0.01201,-14.4125c0,-1.32116 1.06894,-2.40208 2.39007,-2.40208h7.20625l2.40208,2.40208h9.60833c1.32115,0 2.40207,1.08094 2.40207,2.40208zM50.60834,200.69583h-19.21668v12.01042h19.21668z" fill="#4a3e3b" stroke="none" stroke-width="1" stroke-linecap="butt"/><text transform="translate(60.43506,212.48213) scale(0.5,0.5)" font-size="40" xml:space="preserve" fill="#4a3e3b" fill-rule="nonzero" stroke="none" stroke-width="1" stroke-linecap="butt" stroke-linejoin="miter" stroke-miterlimit="10" stroke-dasharray="" stroke-dashoffset="0" font-family="Sans Serif" font-weight="normal" text-anchor="start" style="mix-blend-mode: normal"><tspan x="0" dy="0">Photo</tspan></text><path d="M53.51044,232.19583v12.01042c0,1.32116 -1.08094,2.40208 -2.40208,2.40208h-19.21667c-1.32116,0 -2.40208,-1.08094 -2.40208,-2.40208l0.01201,-14.4125c0,-1.32116 1.06894,-2.40208 2.39007,-2.40208h7.20625l2.40208,2.40208h9.60833c1.32115,0 2.40207,1.08094 2.40207,2.40208zM51.10834,232.19583h-19.21668v12.01042h19.21668z" fill="#4a3e3b" stroke="none" stroke-width="1" stroke-linecap="butt"/><text transform="translate(60.93506,243.98213) scale(0.5,0.5)" font-size="40" xml:space="preserve" fill="#4a3e3b" fill-rule="nonzero" stroke="none" stroke-width="1" stroke-linecap="butt" stroke-linejoin="miter" stroke-miterlimit="10" stroke-dasharray="" stroke-dashoffset="0" font-family="Sans Serif" font-weight="normal" text-anchor="start" style="mix-blend-mode: normal"><tspan x="0" dy="0">DCIM</tspan></text><path d="M53.51044,264.69583v12.01042c0,1.32116 -1.08094,2.40208 -2.40208,2.40208h-19.21667c-1.32116,0 -2.40208,-1.08095 -2.40208,-2.40208l0.01201,-14.4125c0,-1.32116 1.06894,-2.40208 2.39007,-2.40208h7.20625l2.40208,2.40208h9.60833c1.32115,0 2.40207,1.08094 2.40207,2.40208zM51.10834,264.69583h-19.21668v12.01042h19.21668z" fill="#4a3e3b" stroke="none" stroke-width="1" stroke-linecap="butt"/><text transform="translate(60.93506,276.48213) scale(0.5,0.5)" font-size="40" xml:space="preserve" fill="#4a3e3b" fill-rule="nonzero" stroke="none" stroke-width="1" stroke-linecap="butt" stroke-linejoin="miter" stroke-miterlimit="10" stroke-dasharray="" stroke-dashoffset="0" font-family="Sans Serif" font-weight="normal" text-anchor="start" style="mix-blend-mode: normal"><tspan x="0" dy="0">Music</tspan></text><path d="M53.51044,297.69583v12.01042c0,1.32116 -1.08094,2.40208 -2.40208,2.40208h-19.21667c-1.32116,0 -2.40208,-1.08095 -2.40208,-2.40208l0.01201,-14.4125c0,-1.32116 1.06894,-2.40208 2.39007,-2.40208h7.20625l2.40208,2.40208h9.60833c1.32115,0 2.40207,1.08094 2.40207,2.40208zM51.10834,297.69583h-19.21668v12.01042h19.21668z" fill="#4a3e3b" stroke="none" stroke-width="1" stroke-linecap="butt"/><text transform="translate(60.93506,309.48213) scale(0.5,0.5)" font-size="40" xml:space="preserve" fill="#4a3e3b" fill-rule="nonzero" stroke="none" stroke-width="1" stroke-linecap="butt" stroke-linejoin="miter" stroke-miterlimit="10" stroke-dasharray="" stroke-dashoffset="0" font-family="Sans Serif" font-weight="normal" text-anchor="start" style="mix-blend-mode: normal"><tspan x="0" dy="0">Movie</tspan></text><path d="M54.01044,329.19583v12.01042c0,1.32116 -1.08094,2.40208 -2.40208,2.40208h-19.21667c-1.32116,0 -2.40208,-1.08095 -2.40208,-2.40208l0.01201,-14.4125c0,-1.32116 1.06894,-2.40208 2.39007,-2.40208h7.20625l2.40208,2.40208h9.60833c1.32115,0 2.40207,1.08094 2.40207,2.40208zM51.60834,329.19583h-19.21668v12.01042h19.21668z" fill="#4a3e3b" stroke="none" stroke-width="1" stroke-linecap="butt"/><text transform="translate(61.43506,340.98213) scale(0.5,0.5)" font-size="40" xml:space="preserve" fill="#4a3e3b" fill-rule="nonzero" stroke="none" stroke-width="1" stroke-linecap="butt" stroke-linejoin="miter" stroke-miterlimit="10" stroke-dasharray="" stroke-dashoffset="0" font-family="Sans Serif" font-weight="normal" text-anchor="start" style="mix-blend-mode: normal"><tspan x="0" dy="0">Log</tspan></text><text transform="translate(308.71574,187.91223) scale(0.43898,0.43898)" font-size="40" xml:space="preserve" fill="#4a3e3b" fill-rule="nonzero" stroke="none" stroke-width="1" stroke-linecap="butt" stroke-linejoin="miter" stroke-miterlimit="10" stroke-dasharray="" stroke-dashoffset="0" font-family="Sans Serif" font-weight="normal" text-anchor="start" style="mix-blend-mode: normal"><tspan x="0" dy="0">选择Boot文件以修补</tspan></text></g></g></svg>