<svg version="1.1" xmlns="http://www.w3.org/2000/svg" xmlns:xlink="http://www.w3.org/1999/xlink" width="507.28235" height="365" viewBox="0,0,507.28235,365"><g transform="translate(2.12676,3.5)"><g data-paper-data="{&quot;isPaintingLayer&quot;:true}" stroke-linejoin="miter" stroke-miterlimit="10" stroke-dasharray="" stroke-dashoffset="0" style="mix-blend-mode: normal"><path d="M-2.12676,361.5v-365h220.12683v365z" fill="#f0cdc7" fill-rule="nonzero" stroke="none" stroke-width="0" stroke-linecap="butt"/><text transform="translate(260.92116,135.38054) scale(0.14668,0.14668)" font-size="128" xml:space="preserve" fill="#4a3e3b" fill-rule="nonzero" stroke="none" stroke-width="1" stroke-linecap="butt" stroke-linejoin="miter" stroke-miterlimit="10" stroke-dasharray="" stroke-dashoffset="0" font-family="Sans Serif" font-weight="400" text-anchor="start" style="mix-blend-mode: normal"><tspan x="0" dy="0">Wifi</tspan></text><text transform="translate(261.54017,149.21234) scale(0.27908,0.27908)" font-size="40" xml:space="preserve" fill-opacity="0.50196" fill="#4a3e3b" fill-rule="nonzero" stroke="none" stroke-width="1" stroke-linecap="butt" stroke-linejoin="miter" stroke-miterlimit="10" stroke-dasharray="" stroke-dashoffset="0" font-family="Sans Serif" font-weight="normal" text-anchor="start" style="mix-blend-mode: normal"><tspan x="0" dy="0">未连接</tspan></text><text transform="translate(260.50014,248.38054) scale(0.14668,0.14668)" font-size="128" xml:space="preserve" fill="#4a3e3b" fill-rule="nonzero" stroke="none" stroke-width="1" stroke-linecap="butt" stroke-linejoin="miter" stroke-miterlimit="10" stroke-dasharray="" stroke-dashoffset="0" font-family="Sans Serif" font-weight="400" text-anchor="start" style="mix-blend-mode: normal"><tspan x="0" dy="0">以太网</tspan></text><path d="M462.00213,135.34763c0,-4.94121 4.00548,-8.9467 8.94669,-8.9467h23.76009c4.94122,0 8.94669,4.00549 8.94669,8.9467v0c0,4.94121 -4.00548,8.94669 -8.94669,8.94669h-23.76009c-4.94121,0 -8.94669,-4.00547 -8.94669,-8.94669z" fill="#874e45" fill-rule="evenodd" stroke="#fab2a7" stroke-width="1" stroke-linecap="butt"/><path d="M487.66887,135.34763c0,-3.72682 2.98761,-6.74669 6.67336,-6.74669c3.68575,0 6.67336,3.01988 6.67336,6.74669c0,3.72682 -2.98761,6.74668 -6.67336,6.74668c-3.68575,0 -6.67336,-3.01988 -6.67336,-6.74668z" fill="#fab2a7" fill-rule="evenodd" stroke="none" stroke-width="1" stroke-linecap="butt"/><text transform="translate(258.92116,190.38054) scale(0.14668,0.14668)" font-size="128" xml:space="preserve" fill="#4a3e3b" fill-rule="nonzero" stroke="none" stroke-width="1" stroke-linecap="butt" stroke-linejoin="miter" stroke-miterlimit="10" stroke-dasharray="" stroke-dashoffset="0" font-family="Sans Serif" font-weight="400" text-anchor="start" style="mix-blend-mode: normal"><tspan x="0" dy="0">飞行模式</tspan></text><text transform="translate(260.82973,206.09235) scale(0.27574,0.27574)" font-size="40" xml:space="preserve" fill-opacity="0.50196" fill="#4a3e3b" fill-rule="nonzero" stroke="none" stroke-width="1" stroke-linecap="butt" stroke-linejoin="miter" stroke-miterlimit="10" stroke-dasharray="" stroke-dashoffset="0" font-family="Sans Serif" font-weight="normal" text-anchor="start" style="mix-blend-mode: normal"><tspan x="0" dy="0">在飞行时关闭移动网络</tspan></text><path d="M462.00213,194.34763c0,-4.94121 4.00548,-8.9467 8.94669,-8.9467h23.76009c4.94122,0 8.94669,4.00549 8.94669,8.9467v0c0,4.94121 -4.00548,8.94669 -8.94669,8.94669h-23.76009c-4.94121,0 -8.94669,-4.00547 -8.94669,-8.94669z" fill="#dcc2bf" fill-rule="evenodd" stroke="#766865" stroke-width="1.5" stroke-linecap="butt"/><path d="M464.84789,194.34763c0,-3.72682 2.98761,-6.74669 6.67336,-6.74669c3.68575,0 6.67336,3.01988 6.67336,6.74669c0,3.72682 -2.98761,6.74668 -6.67336,6.74668c-3.68575,0 -6.67336,-3.01988 -6.67336,-6.74668z" fill="#766865" fill-rule="evenodd" stroke="none" stroke-width="1" stroke-linecap="butt"/><text transform="translate(260.40871,263.61234) scale(0.26241,0.26241)" font-size="40" xml:space="preserve" fill-opacity="0.50196" fill="#4a3e3b" fill-rule="nonzero" stroke="none" stroke-width="1" stroke-linecap="butt" stroke-linejoin="miter" stroke-miterlimit="10" stroke-dasharray="" stroke-dashoffset="0" font-family="Sans Serif" font-weight="normal" text-anchor="start" style="mix-blend-mode: normal"><tspan x="0" dy="0">尝试通过线缆连接</tspan></text><path d="M463.00213,248.34763c0,-4.94121 4.00548,-8.9467 8.94669,-8.9467h23.76009c4.94122,0 8.94669,4.00549 8.94669,8.9467v0c0,4.94121 -4.00548,8.94669 -8.94669,8.94669h-23.76009c-4.94121,0 -8.94669,-4.00547 -8.94669,-8.94669z" fill="#874e45" fill-rule="evenodd" stroke="#fab2a7" stroke-width="1" stroke-linecap="butt"/><path d="M488.66887,248.34763c0,-3.72682 2.98761,-6.74669 6.67336,-6.74669c3.68575,0 6.67336,3.01988 6.67336,6.74669c0,3.72682 -2.98761,6.74668 -6.67336,6.74668c-3.68575,0 -6.67336,-3.01988 -6.67336,-6.74668z" fill="#fab2a7" fill-rule="evenodd" stroke="none" stroke-width="1" stroke-linecap="butt"/><text transform="translate(261.30127,86.8743) scale(0.89411,0.89411)" font-size="40" xml:space="preserve" fill="#4a3e3b" fill-rule="nonzero" stroke="none" stroke-width="1" stroke-linecap="butt" stroke-linejoin="miter" stroke-miterlimit="10" stroke-dasharray="" stroke-dashoffset="0" font-family="&quot;Microsoft YaHei&quot;, &quot;微软雅黑&quot;, STXihei, &quot;华文细黑&quot;" font-weight="normal" text-anchor="start" style="mix-blend-mode: normal"><tspan x="0" dy="0">无线网络</tspan></text><text transform="translate(25.19465,85.42547) scale(0.89532,0.89532)" font-size="40" xml:space="preserve" fill="#4a3e3b" fill-rule="nonzero" stroke="none" stroke-width="1" stroke-linecap="butt" stroke-linejoin="miter" stroke-miterlimit="10" stroke-dasharray="" stroke-dashoffset="0" font-family="Pixel" font-weight="normal" text-anchor="start" style="mix-blend-mode: normal"><tspan x="0" dy="0">设置</tspan></text><path d="M46.3582,76.45252l6.75,-6.125" fill="none" fill-rule="nonzero" stroke="none" stroke-width="0" stroke-linecap="round"/><path d="M53.4832,68.95252l-7.375,6.5" fill="none" fill-rule="nonzero" stroke="none" stroke-width="0" stroke-linecap="round"/><path d="M40.92218,123.72949l112.44034,-0.68145" fill="none" fill-rule="nonzero" stroke="#f9ddd9" stroke-width="32.5" stroke-linecap="round"/><text transform="translate(39.88459,128.44473) scale(0.33707,0.34502)" font-size="40" xml:space="preserve" fill="#4a3e3b" fill-rule="nonzero" stroke="none" stroke-width="1" stroke-linecap="butt" stroke-linejoin="miter" stroke-miterlimit="10" stroke-dasharray="" stroke-dashoffset="0" font-family="&quot;Microsoft YaHei&quot;, &quot;微软雅黑&quot;, STXihei, &quot;华文细黑&quot;" font-weight="normal" text-anchor="start" style="mix-blend-mode: normal"><tspan x="0" dy="0">搜索...</tspan></text><path d="M442.188,124.89608v21.5" fill="none" fill-rule="nonzero" stroke="#694940" stroke-width="1" stroke-linecap="round"/><text transform="translate(260.09299,307.45253) scale(0.14668,0.14668)" font-size="128" xml:space="preserve" fill="#4a3e3b" fill-rule="nonzero" stroke="none" stroke-width="1" stroke-linecap="butt" stroke-linejoin="miter" stroke-miterlimit="10" stroke-dasharray="" stroke-dashoffset="0" font-family="Sans Serif" font-weight="400" text-anchor="start" style="mix-blend-mode: normal"><tspan x="0" dy="0">高级设置</tspan></text><text transform="translate(260.00156,322.68433) scale(0.26241,0.26241)" font-size="40" xml:space="preserve" fill-opacity="0.50196" fill="#4a3e3b" fill-rule="nonzero" stroke="none" stroke-width="1" stroke-linecap="butt" stroke-linejoin="miter" stroke-miterlimit="10" stroke-dasharray="" stroke-dashoffset="0" font-family="Sans Serif" font-weight="normal" text-anchor="start" style="mix-blend-mode: normal"><tspan x="0" dy="0">VPN，移动热点...</tspan></text><path d="M23.64911,172.30752c0,-8.47853 6.87322,-15.35175 15.35175,-15.35175c8.47853,0 15.35174,6.87322 15.35174,15.35175c0,8.47853 -6.87321,15.35174 -15.35174,15.35174c-8.47853,0 -15.35175,-6.87321 -15.35175,-15.35174z" fill="#f9ddd9" fill-rule="nonzero" stroke="none" stroke-width="0" stroke-linecap="butt"/><path d="M48.5642,172.52397c0,5.40777 -4.38892,9.79669 -9.80648,9.79669c-5.40777,0 -9.78689,-4.38892 -9.78689,-9.79669c0,-5.40777 4.37912,-9.79669 9.78689,-9.79669c5.41757,0 9.80648,4.38892 9.80648,9.79669zM41.30487,165.11767c0.5878,1.08743 1.03845,2.26303 1.35194,3.48762h2.89002c-0.94048,-1.61645 -2.43937,-2.87043 -4.24196,-3.48762zM36.89634,168.60529h3.74234c-0.42126,-1.40093 -1.05805,-2.70389 -1.87117,-3.87949c-0.81312,1.1756 -1.44991,2.47856 -1.87117,3.87949zM34.49616,174.4833c-0.07837,-0.64658 -0.13715,-1.29316 -0.13715,-1.95934c0,-0.66617 0.05878,-1.31276 0.13715,-1.95934h-3.31129c-0.15675,0.62699 -0.25471,1.28337 -0.25471,1.95934c0,0.67597 0.09797,1.33235 0.25471,1.95934zM36.23018,179.93027c-0.5878,-1.08743 -1.03845,-2.26303 -1.35194,-3.48762h-2.89002c0.94048,1.62625 2.43937,2.87043 4.24196,3.48762zM36.23018,165.11767c-1.80259,0.61719 -3.30148,1.86137 -4.24196,3.48762h2.89002c0.31349,-1.22459 0.76414,-2.40019 1.35194,-3.48762zM40.63869,176.44264h-3.74234c0.42126,1.40093 1.05805,2.70389 1.87117,3.87949c0.81312,-1.1756 1.44991,-2.47856 1.87117,-3.87949zM41.21669,172.52397c0,-0.66617 -0.06858,-1.32255 -0.15675,-1.95934h-4.58485c-0.08817,0.63678 -0.15675,1.29316 -0.15675,1.95934c0,0.66617 0.06858,1.31276 0.15675,1.95934h4.58485c0.08817,-0.64658 0.15675,-1.29316 0.15675,-1.95934zM45.54684,176.44264h-2.89002c-0.31349,1.22459 -0.76414,2.40019 -1.35194,3.48762c1.80259,-0.61719 3.30148,-1.87117 4.24196,-3.48762zM46.35015,174.4833c0.15675,-0.62699 0.25471,-1.28337 0.25471,-1.95934c0,-0.67597 -0.09797,-1.33235 -0.25471,-1.95934h-3.31129c0.07837,0.64658 0.13715,1.29316 0.13715,1.95934c0,0.66617 -0.05878,1.31276 -0.13715,1.95934z" fill="#4a3e3b" fill-rule="nonzero" stroke="none" stroke-width="0" stroke-linecap="butt"/><path d="M67.99738,188.2733v-33.4559h86.56893v33.4559z" fill-opacity="0.00784" fill="#e0c3ba" fill-rule="nonzero" stroke="none" stroke-width="0" stroke-linecap="butt"/><text transform="translate(68.25347,174.07761) scale(0.45335,0.45335)" font-size="40" xml:space="preserve" fill="#4a3e3b" fill-rule="nonzero" stroke="none" stroke-width="1" stroke-linecap="butt" stroke-linejoin="miter" stroke-miterlimit="10" stroke-dasharray="" stroke-dashoffset="0" font-family="&quot;Microsoft YaHei&quot;, &quot;微软雅黑&quot;, STXihei, &quot;华文细黑&quot;" font-weight="normal" text-anchor="start" style="mix-blend-mode: normal"><tspan x="0" dy="0">无线网络</tspan></text><text transform="translate(68.47938,186.68964) scale(0.2079,0.2079)" font-size="40" xml:space="preserve" fill="#8b7169" fill-rule="nonzero" stroke="none" stroke-width="1" stroke-linecap="butt" stroke-linejoin="miter" stroke-miterlimit="10" stroke-dasharray="" stroke-dashoffset="0" font-family="Sans Serif" font-weight="normal" text-anchor="start" style="mix-blend-mode: normal"><tspan x="0" dy="0">Wifi  蓝牙 飞行模式 </tspan></text><g fill-rule="nonzero" stroke="none" stroke-linecap="butt"><path d="M22.64234,311.75572c0,-8.47853 6.87322,-15.35175 15.35175,-15.35175c8.47853,0 15.35174,6.87322 15.35174,15.35175c0,8.47853 -6.87321,15.35174 -15.35174,15.35174c-8.47853,0 -15.35175,-6.87321 -15.35175,-15.35174z" fill="#f9ddd9" stroke-width="0"/><text transform="translate(31.96261,321.36691) scale(0.6218,0.6218)" font-size="40" xml:space="preserve" fill="#4a3e3b" fill-rule="nonzero" stroke="none" stroke-width="1" stroke-linecap="butt" stroke-linejoin="miter" stroke-miterlimit="10" stroke-dasharray="" stroke-dashoffset="0" font-family="Sans Serif" font-weight="normal" text-anchor="start" style="mix-blend-mode: normal"><tspan x="0" dy="0">？</tspan></text><path d="M67.97665,326.57223v-32.70395h83.42845v32.70395z" fill-opacity="0.00784" fill="#e0c3ba" stroke-width="0"/><text transform="translate(67.51359,313.6653) scale(0.47467,0.47467)" font-size="40" xml:space="preserve" fill="#4a3e3b" fill-rule="nonzero" stroke="none" stroke-width="1" stroke-linecap="butt" stroke-linejoin="miter" stroke-miterlimit="10" stroke-dasharray="" stroke-dashoffset="0" font-family="&quot;Microsoft YaHei&quot;, &quot;微软雅黑&quot;, STXihei, &quot;华文细黑&quot;" font-weight="normal" text-anchor="start" style="mix-blend-mode: normal"><tspan x="0" dy="0">关于Pixel</tspan></text><text transform="translate(68.1539,325.48148) scale(0.2079,0.2079)" font-size="40" xml:space="preserve" fill="#8b7169" fill-rule="nonzero" stroke="none" stroke-width="1" stroke-linecap="butt" stroke-linejoin="miter" stroke-miterlimit="10" stroke-dasharray="" stroke-dashoffset="0" font-family="Sans Serif" font-weight="normal" text-anchor="start" style="mix-blend-mode: normal"><tspan x="0" dy="0">作者 系统信息 用户</tspan></text></g><path d="M23.05903,218.75572c0,-8.47853 6.87322,-15.35175 15.35175,-15.35175c8.47853,0 15.35174,6.87322 15.35174,15.35175c0,8.47853 -6.87321,15.35174 -15.35174,15.35174c-8.47853,0 -15.35175,-6.87321 -15.35175,-15.35174z" fill="#f9ddd9" fill-rule="nonzero" stroke="none" stroke-width="0" stroke-linecap="butt"/><path d="M44.28575,210.86593c-0.0797,0 -0.15941,-0.01993 -0.22915,-0.05978c-1.91288,-0.98633 -3.56673,-1.40477 -5.54936,-1.40477c-1.97266,0 -3.8457,0.46826 -5.54936,1.40477c-0.23911,0.12952 -0.538,0.03985 -0.67748,-0.19926c-0.12952,-0.23911 -0.03985,-0.54796 0.19926,-0.67748c1.85311,-1.00626 3.88555,-1.52433 6.02758,-1.52433c2.12211,0 3.97521,0.46826 6.00765,1.51437c0.24907,0.12952 0.33874,0.42841 0.20922,0.66752c-0.08967,0.17933 -0.25904,0.27896 -0.43837,0.27896zM30.02878,216.09648c-0.09963,0 -0.19926,-0.02989 -0.28893,-0.08967c-0.22915,-0.15941 -0.27896,-0.46826 -0.11956,-0.69741c0.98633,-1.39481 2.24166,-2.49074 3.7361,-3.25788c3.12836,-1.614 7.13348,-1.62396 10.2718,-0.00996c1.49444,0.76715 2.74977,1.85311 3.7361,3.23796c0.15941,0.21918 0.10959,0.538 -0.11956,0.69741c-0.22915,0.15941 -0.538,0.10959 -0.69741,-0.11956c-0.89666,-1.25533 -2.03244,-2.24166 -3.37744,-2.9291c-2.85936,-1.46455 -6.51576,-1.46455 -9.36517,0.00996c-1.35496,0.69741 -2.49074,1.6937 -3.3874,2.94903c-0.0797,0.13948 -0.22915,0.20922 -0.38855,0.20922zM36.25562,228.12172c-0.12952,0 -0.25904,-0.04982 -0.3487,-0.14945c-0.86678,-0.86678 -1.33503,-1.4247 -2.00255,-2.63022c-0.68744,-1.22544 -1.04611,-2.71988 -1.04611,-4.32391c0,-2.95899 2.53059,-5.37003 5.63903,-5.37003c3.10844,0 5.63903,2.41103 5.63903,5.37003c0,0.27896 -0.21917,0.49815 -0.49815,0.49815c-0.27896,0 -0.49815,-0.21918 -0.49815,-0.49815c0,-2.41103 -2.08225,-4.37373 -4.64273,-4.37373c-2.56048,0 -4.64274,1.9627 -4.64274,4.37373c0,1.43466 0.31882,2.75973 0.92656,3.83573c0.63763,1.14574 1.076,1.63392 1.84314,2.41103c0.1893,0.19926 0.1893,0.50811 0,0.70737c-0.10959,0.09963 -0.23911,0.14944 -0.36863,0.14944zM43.39906,226.27861c-1.18559,0 -2.2317,-0.29889 -3.08852,-0.8867c-1.48448,-1.00626 -2.37118,-2.64018 -2.37118,-4.37373c0,-0.27896 0.21918,-0.49815 0.49815,-0.49815c0.27896,0 0.49815,0.21918 0.49815,0.49815c0,1.40477 0.71733,2.72985 1.93281,3.54681c0.70737,0.47822 1.53429,0.70737 2.53059,0.70737c0.23911,0 0.63763,-0.02989 1.03615,-0.09963c0.269,-0.04981 0.52804,0.12952 0.57785,0.40848c0.04981,0.269 -0.12952,0.52804 -0.40848,0.57785c-0.56789,0.10959 -1.06603,0.11955 -1.20552,0.11955zM41.3965,228.33097c-0.03985,0 -0.08966,-0.00996 -0.12951,-0.01993c-1.58411,-0.43837 -2.62026,-1.02618 -3.70621,-2.09222c-1.39481,-1.38485 -2.16196,-3.22799 -2.16196,-5.20066c0,-1.614 1.37489,-2.9291 3.06859,-2.9291c1.6937,0 3.06859,1.31511 3.06859,2.9291c0,1.06603 0.92655,1.93281 2.07229,1.93281c1.14574,0 2.07229,-0.86678 2.07229,-1.93281c0,-3.75603 -3.23796,-6.80469 -7.22313,-6.80469c-2.82948,0 -5.41984,1.57414 -6.5855,4.01507c-0.38855,0.807 -0.58781,1.75348 -0.58781,2.78962c0,0.77711 0.06974,2.00255 0.66752,3.59662c0.09963,0.25904 -0.02989,0.54796 -0.28893,0.63763c-0.25904,0.09963 -0.54796,-0.03985 -0.63763,-0.28893c-0.48818,-1.30515 -0.72729,-2.60034 -0.72729,-3.94532c0,-1.19555 0.22915,-2.28151 0.67748,-3.22799c1.32507,-2.77966 4.26414,-4.58295 7.48217,-4.58295c4.53314,0 8.21943,3.49699 8.21943,7.80098c0,1.614 -1.37489,2.9291 -3.06859,2.9291c-1.6937,0 -3.06859,-1.31511 -3.06859,-2.9291c0,-1.06603 -0.92655,-1.93281 -2.07229,-1.93281c-1.14574,0 -2.07229,0.86678 -2.07229,1.93281c0,1.70366 0.65755,3.29773 1.86307,4.49329c0.94648,0.93652 1.85311,1.45459 3.25788,1.84314c0.269,0.06974 0.41844,0.3487 0.3487,0.60774c-0.04981,0.22915 -0.25904,0.37859 -0.46826,0.37859z" fill="#4a3e3b" fill-rule="nonzero" stroke="#4a3e3b" stroke-width="0.5" stroke-linecap="butt"/><path d="M68.49178,236.98719v-36.70852h82.31607v36.70852z" fill-opacity="0.00784" fill="#e0c3ba" fill-rule="nonzero" stroke="none" stroke-width="0" stroke-linecap="butt"/><text transform="translate(68.02872,219.354) scale(0.45335,0.45335)" font-size="40" xml:space="preserve" fill="#4a3e3b" fill-rule="nonzero" stroke="none" stroke-width="1" stroke-linecap="butt" stroke-linejoin="miter" stroke-miterlimit="10" stroke-dasharray="" stroke-dashoffset="0" font-family="&quot;Microsoft YaHei&quot;, &quot;微软雅黑&quot;, STXihei, &quot;华文细黑&quot;" font-weight="normal" text-anchor="start" style="mix-blend-mode: normal"><tspan x="0" dy="0">设备安全</tspan></text><text transform="translate(68.06946,233.00425) scale(0.2079,0.2079)" font-size="40" xml:space="preserve" fill="#8b7169" fill-rule="nonzero" stroke="none" stroke-width="1" stroke-linecap="butt" stroke-linejoin="miter" stroke-miterlimit="10" stroke-dasharray="" stroke-dashoffset="0" font-family="Sans Serif" font-weight="normal" text-anchor="start" style="mix-blend-mode: normal"><tspan x="0" dy="0">设置锁屏密码 指纹</tspan></text><path d="M22.39234,265.25572c0,-8.47853 6.87322,-15.35175 15.35175,-15.35175c8.47853,0 15.35174,6.87322 15.35174,15.35175c0,8.47853 -6.87321,15.35174 -15.35174,15.35174c-8.47853,0 -15.35175,-6.87321 -15.35175,-15.35174z" fill="#f9ddd9" fill-rule="nonzero" stroke="none" stroke-width="0" stroke-linecap="butt"/><path d="M67.72665,280.07223v-32.70395h83.42845v32.70395z" fill-opacity="0.00784" fill="#e0c3ba" fill-rule="nonzero" stroke="none" stroke-width="0" stroke-linecap="butt"/><text transform="translate(67.26359,267.1653) scale(0.47467,0.47467)" font-size="40" xml:space="preserve" fill="#4a3e3b" fill-rule="nonzero" stroke="none" stroke-width="1" stroke-linecap="butt" stroke-linejoin="miter" stroke-miterlimit="10" stroke-dasharray="" stroke-dashoffset="0" font-family="&quot;Microsoft YaHei&quot;, &quot;微软雅黑&quot;, STXihei, &quot;华文细黑&quot;" font-weight="normal" text-anchor="start" style="mix-blend-mode: normal"><tspan x="0" dy="0">通知和音效</tspan></text><text transform="translate(67.9039,278.98148) scale(0.2079,0.2079)" font-size="40" xml:space="preserve" fill="#8b7169" fill-rule="nonzero" stroke="none" stroke-width="1" stroke-linecap="butt" stroke-linejoin="miter" stroke-miterlimit="10" stroke-dasharray="" stroke-dashoffset="0" font-family="Sans Serif" font-weight="normal" text-anchor="start" style="mix-blend-mode: normal"><tspan x="0" dy="0">关闭应用通知 闹铃和来电音</tspan></text><path d="M36.00001,272.0169h4c0,1.1 -0.9,2 -2,2c-1.1,0 -2,-0.9 -2,-2zM46.00002,270.0169v1h-16v-1l2,-2v-5c0,-3.08 1.64,-5.64 4.5,-6.32v-0.68c0,-0.83 0.67,-1.5 1.5,-1.5c0.83,0 1.5,0.67 1.5,1.5v0.68c2.87,0.68 4.5,3.25 4.5,6.32v5zM42.00002,263.0169c0,-2.48 -1.51,-4.5 -4,-4.5c-2.49,0 -4,2.02 -4,4.5v6h8z" fill="#4a3e3b" fill-rule="nonzero" stroke="none" stroke-width="1" stroke-linecap="butt"/></g></g></svg>