<svg version="1.1" xmlns="http://www.w3.org/2000/svg" xmlns:xlink="http://www.w3.org/1999/xlink" width="60.33709" height="20.93247" viewBox="0,0,60.33709,20.93247"><g transform="translate(-476.25973,-3.47259)"><g data-paper-data="{&quot;isPaintingLayer&quot;:true}" fill="#f9ddd9" fill-rule="nonzero" stroke="none" stroke-width="1" stroke-linecap="butt" stroke-linejoin="miter" stroke-miterlimit="10" stroke-dasharray="" stroke-dashoffset="0" style="mix-blend-mode: normal"><text transform="translate(506.11431,19.77908) scale(0.37475,0.37475)" font-size="40" xml:space="preserve" fill="#f9ddd9" fill-rule="nonzero" stroke="none" stroke-width="1" stroke-linecap="butt" stroke-linejoin="miter" stroke-miterlimit="10" stroke-dasharray="" stroke-dashoffset="0" font-family="Sans Serif" font-weight="normal" text-anchor="start" style="mix-blend-mode: normal"><tspan x="0" dy="0">74%</tspan></text><path d="M502.67658,10.08832v10.19627c0,0.35049 -0.32148,0.63727 -0.71438,0.63727l-6.82027,0.06908c-0.39291,0 -0.71438,-0.28677 -0.71438,-0.63727v-10.19627c0,-0.35049 0.32147,-0.63727 0.71438,-0.63727h1.42877v-1.27453l3.96273,-0.06907v1.27453h1.42877c0.39291,0 0.71438,0.28677 0.71438,0.63727zM501.24781,10.72559l-5.3915,0.06907v2.54907l5.3915,-0.06907z"/><path d="M483.50089,20.35715l-0.00622,-0.00622l-7.23494,-9.01412c0.27994,-0.21151 3.0607,-2.48837 7.24116,-2.48837c4.17424,0 6.96122,2.27685 7.24116,2.48837l-7.23494,9.01412z"/></g></g></svg>