<svg version="1.1" xmlns="http://www.w3.org/2000/svg" xmlns:xlink="http://www.w3.org/1999/xlink" width="181.22106" height="254.94371" viewBox="0,0,181.22106,254.94371"><g transform="translate(-205.81529,-59.80912)"><g data-paper-data="{&quot;isPaintingLayer&quot;:true}" fill-rule="nonzero" stroke-linejoin="miter" stroke-miterlimit="10" stroke-dasharray="" stroke-dashoffset="0" style="mix-blend-mode: normal"><path d="M278.35018,129.72439c-2.73708,-6.93268 -4.10561,-14.93412 -4.10561,-24.00433c0,-9.09035 1.36854,-17.07183 4.10561,-23.94441c2.73708,-6.87265 6.70281,-12.24691 11.89725,-16.12277c5.21448,-3.89584 11.5377,-5.84376 18.96967,-5.84376c7.45199,0 13.77525,1.94791 18.96976,5.84376c5.19439,3.87585 9.16015,9.25011 11.89726,16.12277c2.757,6.87258 4.13553,14.85404 4.13553,23.94441c0,9.07022 -1.37851,17.07165 -4.13553,24.00433c-2.73711,6.91252 -6.70286,12.29672 -11.89726,16.15263c-5.19452,3.83587 -11.51777,5.7538 -18.96976,5.7538c-7.43197,0 -13.75518,-1.91792 -18.96967,-5.7538c-5.19442,-3.8559 -9.16017,-9.2401 -11.89725,-16.15263zM328.12677,105.72008c0,-9.98929 -1.6582,-17.64111 -4.97461,-22.95546c-3.31641,-5.3343 -8.00135,-8.00148 -14.05487,-8.00148c-6.05352,0 -10.69853,2.66716 -13.93506,8.00148c-3.23655,5.31434 -4.85483,12.96617 -4.85483,22.95546c0,9.96927 1.61829,17.62109 4.85483,22.95546c3.23653,5.31423 7.88154,7.97135 13.93506,7.97135c6.05352,0 10.73846,-2.65712 14.05487,-7.97135c3.31641,-5.33437 4.97461,-12.98619 4.97461,-22.95546z" fill="#f9ddd9" stroke="none" stroke-width="1" stroke-linecap="butt"/><path d="M210.76916,96.84176v-17.68102l23.43491,-17.20158h12.16696v87.89587h-16.09272v-67.51778z" fill="#f9ddd9" stroke="none" stroke-width="1" stroke-linecap="butt"/><path d="M227.15244,246.45035c5.07457,-4.41528 9.09028,-8.46097 12.04711,-12.13707c2.69704,-3.43633 4.59499,-6.73279 5.69387,-9.88931c1.09874,-3.15665 1.64813,-6.53303 1.64813,-10.12913c0,-3.59622 -1.16873,-6.52313 -3.50621,-8.78072c-2.31744,-2.25753 -5.27427,-3.38631 -8.87049,-3.38631c-3.51622,0 -6.44305,1.06886 -8.78053,3.20658c-2.3375,2.11774 -3.83589,5.22444 -4.4952,9.3201l-15.07383,-1.34859c0.47949,-4.99471 1.90795,-9.44993 4.28541,-13.36572c2.37745,-3.93578 5.62397,-7.04245 9.73955,-9.32c4.13562,-2.29752 8.99042,-3.4463 14.56441,-3.4463c8.91045,0 15.86294,2.3375 20.85752,7.0125c4.99471,4.65501 7.49204,11.10807 7.49204,19.35919c0,5.57412 -1.04886,10.77854 -3.14658,15.61323c-2.0778,4.81491 -4.79489,9.35009 -8.15124,13.60549c-2.93691,3.69602 -6.2534,7.16227 -9.9494,10.39882c-3.6761,3.21662 -7.47202,6.30334 -11.38775,9.26019l0.35963,0.59926h34.49302v13.99515h-57.08886v-14.74428c7.77167,-6.13338 14.19479,-11.40774 19.26936,-15.82303z" fill="#f9ddd9" stroke="none" stroke-width="1" stroke-linecap="butt"/><path d="M277.13396,261.27036v-12.91628l37.54966,-59.03676h17.20163v56.96908h10.30903v14.98395h-10.30903v15.94284h-15.85307v-15.94284zM316.03221,213.38159h-0.98893l-20.85758,32.90487h21.84653z" fill="#f9ddd9" stroke="none" stroke-width="1" stroke-linecap="butt"/><text transform="translate(206.34079,309.3386) scale(0.44583,0.44583)" font-size="40" xml:space="preserve" fill="#f9ddd9" fill-rule="nonzero" stroke="#f9ddd9" stroke-width="0.6" stroke-linecap="butt" stroke-linejoin="miter" stroke-miterlimit="10" stroke-dasharray="" stroke-dashoffset="0" font-family="Sans Serif" font-weight="normal" text-anchor="start" style="mix-blend-mode: normal"><tspan x="0" dy="0">周三</tspan></text><path d="M385.78635,182.13095v-20.66667" fill="none" stroke="#4b4f73" stroke-width="2.5" stroke-linecap="round"/></g></g></svg>