<svg version="1.1" xmlns="http://www.w3.org/2000/svg" xmlns:xlink="http://www.w3.org/1999/xlink" width="177.27988" height="79.57538" viewBox="0,0,177.27988,79.57538"><g transform="translate(-186.36007,-140.24606)"><g data-paper-data="{&quot;isPaintingLayer&quot;:true}" fill-rule="nonzero" stroke-linejoin="miter" stroke-miterlimit="10" stroke-dasharray="" stroke-dashoffset="0" style="mix-blend-mode: normal"><g fill="#4b4f73" stroke="#4b4f73" stroke-width="0.5" stroke-linecap="butt"><path d="M186.62028,209.22972c-0.00202,-0.22259 0.00002,-0.44824 0.00008,-0.67684c0.00198,-8.83466 0.04176,-22.10869 0.08222,-36.53447c16.23236,0.73368 32.72662,0.0862 48.97222,-0.01727c42.57097,-0.27115 85.14404,-0.35714 127.71461,-0.67779c0,15.25424 0,29.30703 0,38.26275c0,10.44388 -5.57242,9.9789 -11.76085,9.9789c-18.59825,0 -113.57622,0 -150.39631,0c-9.0708,0 -14.51253,0.62109 -14.61196,-10.33529z"/><path d="M186.62028,150.47496c-0.24858,-9.604 4.08213,-9.9789 8.90973,-9.9789c17.4502,0 122.24987,-0.15186 156.81133,0c11.31512,0.04972 11.04807,5.38514 11.04807,11.04807c0,4.29631 0,12.9919 0,23.85649c-42.65179,0.29363 -85.30343,0.62235 -127.95577,0.82171c-7.4499,0.03482 -30.29502,-3.70732 -48.64607,-0.54114c-0.00908,-11.60342 -0.05507,-20.87071 -0.16729,-25.20622z"/></g><text transform="translate(196.00442,154.64753) scale(0.20743,0.20743)" font-size="40" xml:space="preserve" fill="#838bca" fill-rule="nonzero" stroke="none" stroke-width="1" stroke-linecap="butt" stroke-linejoin="miter" stroke-miterlimit="10" stroke-dasharray="" stroke-dashoffset="0" font-family="&quot;Microsoft YaHei&quot;, &quot;微软雅黑&quot;, STXihei, &quot;华文细黑&quot;" font-weight="normal" text-anchor="start" style="mix-blend-mode: normal"><tspan x="0" dy="0">静默通知 - 系统更新正在进行</tspan></text><text transform="translate(207.95456,170.72043) scale(0.29735,0.29735)" font-size="40" xml:space="preserve" fill="#a3acfa" fill-rule="nonzero" stroke="none" stroke-width="1" stroke-linecap="butt" stroke-linejoin="miter" stroke-miterlimit="10" stroke-dasharray="" stroke-dashoffset="0" font-family="&quot;Microsoft YaHei&quot;, &quot;微软雅黑&quot;, STXihei, &quot;华文细黑&quot;" font-weight="normal" text-anchor="start" style="mix-blend-mode: normal"><tspan x="0" dy="0">系统更新服务</tspan></text><path d="M348.5229,187.57339h-100.5848" fill="none" stroke="#7d84c0" stroke-width="5.5" stroke-linecap="round"/><path d="M198.25974,187.58235h100.5848" fill="none" stroke="#a3acfa" stroke-width="5.5" stroke-linecap="round"/><path d="M195.39207,166.4658c0,-2.9417 2.38472,-5.32641 5.32641,-5.32641c2.94169,0 5.32641,2.38472 5.32641,5.32641c0,2.9417 -2.38472,5.32641 -5.32641,5.32641c-2.94169,0 -5.32641,-2.38471 -5.32641,-5.32641z" fill="#a3acfa" stroke="none" stroke-width="0" stroke-linecap="butt"/><text transform="translate(195.81186,208.15023) scale(0.24775,0.24775)" font-size="40" xml:space="preserve" fill="#6a79ff" fill-rule="nonzero" stroke="none" stroke-width="1" stroke-linecap="butt" stroke-linejoin="miter" stroke-miterlimit="10" stroke-dasharray="" stroke-dashoffset="0" font-family="Sans Serif" font-weight="normal" text-anchor="start" style="mix-blend-mode: normal"><tspan x="0" dy="0">取消</tspan></text><text transform="translate(222.9076,207.95123) scale(0.24775,0.24775)" font-size="40" xml:space="preserve" fill="#6a79ff" fill-rule="nonzero" stroke="none" stroke-width="1" stroke-linecap="butt" stroke-linejoin="miter" stroke-miterlimit="10" stroke-dasharray="" stroke-dashoffset="0" font-family="Sans Serif" font-weight="normal" text-anchor="start" style="mix-blend-mode: normal"><tspan x="0" dy="0">查看</tspan></text><path d="M204.92176,168.15857h-8.32944c0.10601,-1.34785 0.8708,-2.55562 2.0445,-3.22576l-0.69664,-1.20398c-0.05679,-0.1098 -0.02272,-0.2461 0.08329,-0.31425c0.1098,-0.06815 0.25746,-0.03407 0.32939,0.07572l0.71179,1.2267c1.08283,-0.45812 2.30195,-0.45812 3.38478,0l0.71179,-1.2267c0.06815,-0.10601 0.20445,-0.14009 0.31425,-0.08329c0.11358,0.06058 0.15902,0.20445 0.09844,0.32182l-0.69664,1.20398c1.17369,0.67014 1.93849,1.87791 2.0445,3.22576zM199.33725,166.64413c0,-0.26124 -0.21202,-0.47326 -0.47326,-0.47326c-0.26124,0 -0.47326,0.21202 -0.47326,0.47326c0,0.26124 0.21202,0.47326 0.47326,0.47326c0.26124,0 0.47326,-0.21202 0.47326,-0.47326zM203.12336,166.64413c0,-0.26124 -0.21202,-0.47326 -0.47326,-0.47326c-0.26124,0 -0.47326,0.21202 -0.47326,0.47326c0,0.26124 0.21202,0.47326 0.47326,0.47326c0.26124,0 0.47326,-0.21202 0.47326,-0.47326z" fill="#4b4f73" stroke="none" stroke-width="1" stroke-linecap="butt"/></g></g></svg>