<svg version="1.1" xmlns="http://www.w3.org/2000/svg" xmlns:xlink="http://www.w3.org/1999/xlink" width="35.5" height="35.5" viewBox="0,0,35.5,35.5"><g transform="translate(-257.25,-162.25)"><g data-paper-data="{&quot;isPaintingLayer&quot;:true}" stroke="none" stroke-linecap="butt" stroke-linejoin="miter" stroke-miterlimit="10" stroke-dasharray="" stroke-dashoffset="0" style="mix-blend-mode: normal"><path d="M257.25,180c0,-9.80304 7.94696,-17.75 17.75,-17.75c9.80304,0 17.75,7.94696 17.75,17.75c0,9.80304 -7.94696,17.75 -17.75,17.75c-9.80304,0 -17.75,-7.94696 -17.75,-17.75z" fill="#f0cdc7" fill-rule="nonzero" stroke-width="0"/><path d="M261.77436,180c0,-7.26234 5.92132,-13.14963 13.22564,-13.14963c7.30432,0 13.22564,5.88729 13.22564,13.14963c0,7.26234 -5.92132,13.14963 -13.22564,13.14963c-7.30432,0 -13.22564,-5.88729 -13.22564,-13.14963z" fill="#f9ddd9" fill-rule="nonzero" stroke-width="0"/><path d="M282.63147,180.39428c0,2.54292 -2.06142,4.60442 -4.60446,4.60442h-4.85235c-2.54297,0 -4.60446,-2.0615 -4.60446,-4.60442c0,-2.54297 2.06149,-4.60445 4.60446,-4.60445h4.85235c2.54304,0 4.60446,2.06148 4.60446,4.60445z" fill="#4a3e3b" fill-rule="evenodd" stroke-width="1"/><path d="M270.12774,183.82101h5.30888v5.17772z" fill="#4a3e3b" fill-rule="evenodd" stroke-width="1"/><path d="M280.90265,176.53776c-0.85547,-0.82465 -2.0191,-1.33183 -3.3012,-1.33183h-4.87881c-2.62735,0 -4.75725,2.12989 -4.75725,4.75724c0,0.40958 0.05176,0.80707 0.1491,1.18629c-0.52264,-0.74689 -0.82929,-1.65604 -0.82929,-2.63681c0,-2.54296 2.06149,-4.60444 4.60446,-4.60444h4.85241c1.83618,0 3.4213,1.07479 4.16059,2.62955z" fill="#4a3e3b" fill-rule="evenodd" stroke-width="1"/></g></g></svg>